<svg width="127" height="38" fill="none" xmlns="http://www.w3.org/2000/svg"><path d="M67.381 9.315c-.1 0-.15-.043-.15-.128a.9.9 0 0 1 .016-.14.372.372 0 0 1 .074-.178c.32-.034.559-.12.719-.255.159-.136.314-.353.463-.65L72.198.419c.05-.102.14-.153.27-.153h.134l3.53 7.698c.14.314.26.527.359.637.1.11.244.174.434.191.07.009.154.013.254.013h.3c0 .042-.006.098-.016.166 0 .068-.01.123-.03.165-.03.085-.064.136-.104.153a.259.259 0 0 1-.09.026H74.56c-.1 0-.15-.043-.15-.128a.91.91 0 0 1 .016-.14.372.372 0 0 1 .074-.178c.24-.026.424-.073.554-.14a.347.347 0 0 0 .194-.332c0-.102-.04-.246-.12-.433l-.702-1.568h-4.473l-.763 1.568c-.11.238-.164.412-.164.522 0 .102.03.174.09.217.07.042.159.072.269.09.07.008.164.012.284.012h.344c0 .042-.005.098-.015.166 0 .068-.01.123-.03.165-.03.085-.065.136-.105.153a.259.259 0 0 1-.09.026h-2.393Zm2.842-3.492h3.95l-1.826-4.078c-.05-.102-.1-.102-.15 0l-1.974 4.078ZM78.177 9.315c-.1 0-.15-.043-.15-.128 0-.034.005-.08.015-.14a.372.372 0 0 1 .075-.178c.349-.034.578-.107.688-.217.12-.11.19-.272.21-.484.01-.11.02-.285.03-.523.01-.238.014-.51.014-.815.01-.315.015-.625.015-.93 0-.29-.005-.549-.015-.778 0-.238-.005-.412-.015-.523-.01-.17-.05-.293-.12-.37-.06-.076-.174-.122-.344-.14l-.553-.05c-.07 0-.105-.034-.105-.102a.48.48 0 0 1 .15-.344c.16-.043.359-.077.598-.102.24-.026.449-.039.629-.039.219 0 .373.047.463.14.09.086.135.23.135.434v.28c.29-.314.648-.565 1.077-.752a3.21 3.21 0 0 1 1.346-.293c.638 0 1.147.162 1.526.485.389.322.583.828.583 1.516V7.76c.01.255.02.484.03.688.01.119.04.2.09.242.05.034.105.06.164.077a8.223 8.223 0 0 0 .763.038c0 .042-.005.106-.015.191a.65.65 0 0 1-.044.191c-.03.085-.085.128-.165.128h-2.558c-.1 0-.15-.043-.15-.128a.9.9 0 0 1 .016-.14.372.372 0 0 1 .074-.178c.34-.034.574-.107.703-.217.13-.11.21-.272.24-.484.02-.102.03-.302.03-.6.01-.297.014-.62.014-.968 0-.263-.004-.51-.014-.739 0-.23-.005-.404-.015-.522-.03-.476-.19-.829-.479-1.058-.29-.23-.653-.349-1.092-.357a2.28 2.28 0 0 0-1.331.395c-.4.272-.668.616-.808 1.032-.01.221-.015.446-.015.676v1.669c.01.289.02.544.03.765.01.178.095.28.254.306.07.008.195.017.374.025.18.009.31.013.39.013 0 .042-.006.098-.016.166 0 .068-.01.123-.03.165-.03.085-.065.136-.105.153a.259.259 0 0 1-.09.026h-2.497ZM86.708 9.315c-.1 0-.15-.043-.15-.128a.91.91 0 0 1 .015-.14.372.372 0 0 1 .075-.178c.349-.034.578-.107.688-.217.12-.11.19-.272.21-.484.01-.11.02-.285.03-.523.01-.238.014-.51.014-.815.01-.315.015-.625.015-.93 0-.29-.005-.549-.015-.778a6.51 6.51 0 0 0-.015-.523c-.01-.17-.05-.293-.12-.37-.06-.076-.174-.122-.343-.14l-.554-.05c-.07 0-.105-.034-.105-.102a.48.48 0 0 1 .15-.344c.16-.043.359-.077.598-.102.24-.026.45-.039.629-.039.219 0 .374.047.463.14.09.086.135.23.135.434v.28c.29-.314.648-.565 1.077-.752a3.21 3.21 0 0 1 1.346-.293c.638 0 1.147.162 1.526.485.389.322.583.828.583 1.516V7.76c.01.255.02.484.03.688.01.119.04.2.09.242.05.034.105.06.165.077a8.223 8.223 0 0 0 .763.038c0 .042-.006.106-.015.191a.653.653 0 0 1-.045.191c-.03.085-.085.128-.165.128h-2.558c-.1 0-.15-.043-.15-.128 0-.034.005-.08.016-.14a.372.372 0 0 1 .074-.178c.34-.034.574-.107.703-.217.13-.11.21-.272.24-.484.02-.102.03-.302.03-.6.01-.297.015-.62.015-.968 0-.263-.005-.51-.015-.739 0-.23-.005-.404-.015-.522-.03-.476-.19-.829-.479-1.058-.29-.23-.653-.349-1.092-.357a2.281 2.281 0 0 0-1.331.395c-.4.272-.668.616-.808 1.032-.01.221-.015.446-.015.676v1.669c.01.289.02.544.03.765.01.178.095.28.254.306.07.008.195.017.374.025.18.009.31.013.39.013 0 .042-.006.098-.016.166 0 .068-.01.123-.03.165-.03.085-.065.136-.105.153a.259.259 0 0 1-.09.026h-2.497ZM100.31 9.442a.59.59 0 0 1-.479-.217 1.057 1.057 0 0 1-.21-.573 3.716 3.716 0 0 1-1.226.65 4.63 4.63 0 0 1-1.316.204c-.549 0-1.023-.145-1.421-.434-.4-.297-.599-.713-.599-1.248 0-.468.155-.837.464-1.11.309-.28.798-.488 1.466-.624.678-.144 1.555-.242 2.632-.293v-.28c0-.178-.01-.37-.03-.574a1.328 1.328 0 0 0-.194-.573c-.1-.178-.27-.323-.508-.433-.24-.12-.574-.179-1.003-.179-.488 0-.852.094-1.092.28-.239.18-.379.45-.418.816a.81.81 0 0 0-.135.013h-.15a1.97 1.97 0 0 1-.508-.064c-.16-.042-.24-.131-.24-.267s.09-.276.27-.42c.18-.154.418-.294.718-.421.299-.128.628-.23.987-.306a4.6 4.6 0 0 1 1.062-.128c.359 0 .698.055 1.017.166.33.102.593.28.793.535.199.255.289.608.269 1.058-.01.238-.02.54-.03.905v1.81c.01.229.015.424.015.586.01.229.04.365.09.407.06.034.145.047.254.039h.015l.748-.039c.06 0 .09.03.09.09a.642.642 0 0 1-.045.19.346.346 0 0 1-.105.192c-.059.025-.169.06-.329.102a19.07 19.07 0 0 1-.478.102c-.16.025-.285.038-.374.038Zm-.703-1.274.014-1.759a14.026 14.026 0 0 0-1.121-.05c-.659 0-1.167.054-1.526.165-.36.11-.608.267-.748.471-.14.196-.21.43-.21.701 0 .4.15.693.45.88.299.178.653.267 1.061.267.36 0 .723-.06 1.092-.178.38-.12.708-.285.988-.497ZM14.904 29.334c-2.284 0-4.388-.432-6.31-1.297C2.937 28.006.11 25.843.11 21.549c0-.896.163-1.885.49-2.966A17.417 17.417 0 0 1 0 14.134C0 11.54 1.56 9.191 4.678 7.09 4.497 3.94 5.838 1.776 8.703.602A7.038 7.038 0 0 1 11.586 0c2.865 0 5.603 1.328 8.214 3.985 2.43.402 4.424 1.344 5.983 2.827 1.632 1.545 2.448 3.399 2.448 5.561 0 2.626-.925 5.16-2.774 7.6-.472 2.78-1.705 5.036-3.7 6.766-1.957 1.73-4.242 2.595-6.853 2.595ZM5.276 6.766c3.3-2.04 7.235-3.059 11.804-3.059.471 0 .96.031 1.469.093-2.466-2.224-4.896-3.337-7.29-3.337-.87 0-1.65.155-2.338.464-2.539 1.05-3.754 2.997-3.645 5.839Zm2.72 19.741c1.596 0 3.21-.231 4.841-.695a25.914 25.914 0 0 0 4.841-2.039c3.191-1.76 5.585-3.923 7.18-6.488a28.772 28.772 0 0 0-.163-1.76c-.072-.588-.2-1.19-.38-1.808-.798-3.553-2.485-6.627-5.06-9.222-.616-.123-1.341-.185-2.175-.185-4.787 0-8.685 1.266-11.695 3.8.073.432.181.85.326 1.251.182.37.363.726.544 1.066 3.228-2.657 6.51-3.986 9.846-3.986.435 0 .652.109.652.325 0 .185-.235.278-.707.278-2.864 0-5.929 1.436-9.192 4.31 1.595 1.915 3.535 2.873 5.82 2.873 1.886 0 3.245-.865 4.08-2.595 0-.093.054-.14.163-.14.254 0 .344.093.272.279-.907 1.884-2.394 2.827-4.46 2.827-2.43 0-4.515-.958-6.256-2.874-2.285 2.132-3.862 4.357-4.732 6.674.725 3.398 2.411 6.07 5.058 8.017.182.03.381.061.599.092h.598Zm17.57-10.658a10.67 10.67 0 0 0 .815-4.078c0-3.522-1.922-5.84-5.765-6.951a20.394 20.394 0 0 1 2.883 4.078 14.716 14.716 0 0 1 1.686 4.82l.217 1.065c.037.185.055.37.055.556.036.185.072.355.108.51Zm-24.097.417c.906-1.977 2.339-3.8 4.297-5.468-.363-.587-.653-1.344-.87-2.271A11.323 11.323 0 0 0 2.61 11.4c-.834 1.452-1.215 3.074-1.142 4.866Zm4.188 10.01c-1.922-1.514-3.409-3.46-4.46-5.84a1.48 1.48 0 0 0-.055.418v.417c0 2.626 1.505 4.294 4.515 5.005Zm9.302 2.687c2.357 0 4.37-.741 6.037-2.224 1.668-1.452 2.81-3.306 3.427-5.561-1.85 1.946-4.08 3.537-6.69 4.773-2.611 1.236-5.295 1.916-8.05 2.04 1.559.648 3.317.972 5.276.972ZM27.86 27.805c-1.378 0-2.067-.247-2.067-.742 0-.587.58-.911 1.74-.973 1.523-.061 3.41-.216 5.657-.463.29-.402.436-.757.436-1.066 0-.494-.417-1.05-1.252-1.668-1.994-1.483-2.991-2.904-2.991-4.264 0-.463.127-.896.38-1.297 1.233-1.792 2.757-2.688 4.57-2.688.761 0 1.414.17 1.958.51.544.34.816.71.816 1.112a.727.727 0 0 1-.109.37c-.036.093-.09.14-.163.14-.073 0-.163-.093-.272-.278-.073-.526-.417-.788-1.034-.788-.906 0-1.849.417-2.828 1.251-.943.865-1.414 1.684-1.414 2.456 0 .68.526 1.56 1.577 2.641 1.052 1.05 1.578 1.839 1.578 2.364 0 .247-.091.556-.272.927a23.644 23.644 0 0 0 1.74-.788 99 99 0 0 0 2.557-1.251c.108.062-.309.448-1.251 1.158l-3.482 1.761c-.29.433-1.051.803-2.284 1.113-1.124.308-2.321.463-3.59.463ZM41.798 26.785c-.471 0-.87-.046-1.197-.139-.326-.061-.58-.139-.761-.231-.435-.278-.653-.804-.653-1.576 0-.247.018-.525.054-.834.073-.31.145-.664.218-1.066.145-.741.616-2.07 1.414-3.985.182-.402.327-.757.435-1.066.145-.31.254-.572.327-.788l.272-.602c-.798 0-2.14.139-4.025.417h-.055c-.145 0-.217-.155-.217-.464 0-.37.163-.602.49-.695.253-.093 1.65-.216 4.188-.37.29-.804.634-1.73 1.033-2.781.435-1.081.925-2.27 1.469-3.568.036-.186.181-.278.435-.278.29 0 .616.216.979.648.363.402.544.788.544 1.159a.561.561 0 0 1-.054.278l-2.666 4.541c.472-.03.889-.046 1.251-.046h1.142c2.068 0 3.12.139 3.155.417 0 .124-.87.247-2.61.37-.472.032-.889.063-1.252.093-.362 0-.689.031-.979.093l-1.033.14c-.4 0-.961 1.281-1.686 3.846-.653 2.286-.98 3.645-.98 4.078 0 .926.4 1.39 1.197 1.39.617 0 1.831-.417 3.645-1.251l.816-.464c.326-.216.725-.479 1.196-.788.725-.525 1.179-.787 1.36-.787.073 0 .127.061.163.185 0 .432-.943 1.205-2.828 2.317-1.959 1.205-3.554 1.807-4.787 1.807Z" fill="#8E7F7F"/><path d="M49.794 26.739c-1.16-.154-1.741-.85-1.741-2.085 0-1.885 1.015-3.97 3.046-6.256 2.103-2.41 4.28-3.615 6.527-3.615.762 0 1.45.154 2.067.463.653.278.98.726.98 1.344 0 .71-.345 1.112-1.034 1.205.218-.309.326-.618.326-.927 0-.68-.453-1.02-1.36-1.02-.87 0-1.813.371-2.828 1.113-2.502 1.823-4.334 3.939-5.494 6.349-.363.741-.544 1.36-.544 1.853 0 .402.163.603.49.603.362 0 .997-.355 1.904-1.066.616-.494 1.958-1.993 4.025-4.495.544-.649.979-.973 1.305-.973.29 0 .435.649.435 1.946v2.595c.327 1.36.889 2.04 1.687 2.04.435 0 .96-.124 1.577-.371.653-.279 1.287-.711 1.904-1.298l.979-.88c.109-.031.236.03.38.185-.144.34-.779.911-1.903 1.714-1.414 1.02-2.72 1.53-3.916 1.53-.327 0-.653-.047-.98-.14-.942-.277-1.559-1.142-1.849-2.595a14.004 14.004 0 0 0-.218-1.019 5.541 5.541 0 0 1-.054-.695v-.232c-.218.37-.852 1.143-1.904 2.317-1.56 1.73-2.828 2.534-3.807 2.41Z" fill="#8E7F7F"/><path d="M62.66 38c-.108 0-.235-.015-.38-.046a2.73 2.73 0 0 1-.435-.047c-.762-.092-1.36-.51-1.795-1.25-.471-.711-.707-1.53-.707-2.457 0-.402.036-.788.109-1.159.834-3.243 2.955-8.928 6.364-17.053-.472-.216-.69-.37-.653-.464.181-.556.598-.911 1.251-1.065a9.457 9.457 0 0 0 .87-2.596v-.046c0-.309-.217-.71-.652-1.205l-.163-.139c0-.216.235-.262.707-.139.725.186 1.269.448 1.631.788.363.309.508.587.436.834l-.49 1.483-.544 1.483c2.176 1.174 3.463 2.873 3.862 5.098 0 .154.073.231.218.231.217 0 .634-.17 1.25-.51 1.016-.587 1.47-.88 1.36-.88.182 0 .2.108.055.324-.109.186-.29.34-.544.464l-2.284 1.205c-.182 3.274-1.632 5.205-4.352 5.792-.145.031-.29.047-.435.047-.145.03-.29.046-.435.046-.798 0-1.197-.355-1.197-1.066 0-.772.435-1.606 1.305-2.502l.87-.649c.508-.37 1.288-.927 2.34-1.668 0-.68-.29-1.53-.87-2.55-.617-1.08-1.234-1.73-1.85-1.945-.109-.062-1.07 2.286-2.883 7.043-1.922 5.005-3.01 8.357-3.264 10.056-.217 1.36-.326 2.101-.326 2.225 0 1.112.471 1.745 1.414 1.9.363.03.544.123.544.278 0 .093-.109.139-.326.139Zm4.896-12.234c1.016 0 1.795-.664 2.34-1.993.253-.618.38-1.19.38-1.715v-.277a.758.758 0 0 0-.054-.279c-1.415 1.082-2.375 1.962-2.883 2.642-.29.432-.435.788-.435 1.066 0 .37.217.556.652.556ZM78.413 27.11c-1.088 0-1.995-.278-2.72-.834-.725-.587-1.088-1.576-1.088-2.966 0-.371.036-.773.109-1.205.326-1.576 1.088-3.074 2.285-4.495 1.486-1.73 3.028-2.595 4.623-2.595.834 0 1.614.2 2.339.602.725.37 1.088.927 1.088 1.668 0 .834-.399 1.7-1.197 2.596h1.088c.181 0 .29.015.326.046 0 .185-.67.386-2.012.602-.798.773-1.396 1.159-1.795 1.159-.073 0-.109-.031-.109-.093 0 .031.272-.278.816-.927-.471 0-1.106.031-1.904.093-.761.03-1.686.108-2.774.232-.399.927-.598 1.792-.598 2.595 0 1.02.326 1.76.979 2.224.399.31.888.464 1.469.464h.326c.109 0 .217-.016.326-.047 2.321-.34 4.57-1.483 6.745-3.429.181-.216.326-.247.435-.093.037.031.055.078.055.14 0 .123-.11.277-.327.463-.761.834-1.958 1.653-3.59 2.456-1.813.896-3.445 1.344-4.895 1.344Zm-.381-7.09a33.47 33.47 0 0 1 1.958-.047l2.72-.046c.399-.68.653-1.22.762-1.622.108-.402.163-.726.163-.973 0-.65-.29-.974-.87-.974-.726 0-1.524.371-2.394 1.113-.508.432-.961.865-1.36 1.297a6.33 6.33 0 0 0-.979 1.252ZM97.158 27.759c-1.886 0-2.829-1.035-2.829-3.105 0-1.113.272-2.503.816-4.171l.87-2.642-3.807 3.708c-.907.896-1.614 1.637-2.122 2.224-.507.587-.816 1.004-.924 1.251-.436.989-1.106 1.483-2.013 1.483-.326 0-.435-.139-.326-.417l.87-2.873c.29-.896.49-1.715.598-2.456.11-.772.163-1.452.163-2.039a3.41 3.41 0 0 0-.054-.649 2.888 2.888 0 0 1-.054-.556c0-.402.235-.772.707-1.112.471-.34.943-.51 1.414-.51.544 0 .762.263.653.788a32.828 32.828 0 0 1-.38 1.622c-.11.525-.218 1.05-.327 1.576l-.87 3.382c2.175-1.699 4.478-4.17 6.907-7.414.146-.216.49-.325 1.034-.325.87 0 1.324.155 1.36.464.072.278-.073.834-.435 1.668-.544 1.36-.925 2.425-1.143 3.198-.544 1.946-.816 3.49-.816 4.634 0 1.112.29 1.668.87 1.668.654 0 1.397-.309 2.231-.927.762-.556 1.124-.834 1.088-.834.109 0 .127.124.054.37-.036.248-.217.51-.544.789-.942.803-1.94 1.205-2.991 1.205Z" fill="#8E7F7F"/><path d="M101.451 26.693c-.145 0-.435-.186-.87-.556l-.762-.603c0-.958.308-2.796.925-5.514.362-1.483.725-2.905 1.088-4.264.399-1.36.816-2.657 1.251-3.893 1.559-4.387 3.844-7.26 6.854-8.62.797-.37 1.595-.555 2.393-.555 1.16 0 2.103.448 2.828 1.344l.218.278c.036.154.036.247 0 .278-.073.062-.163.062-.272 0a.405.405 0 0 1-.272-.093c-.798-.587-1.795-.865-2.992-.834-2.32.03-4.514 2.44-6.581 7.23a48.304 48.304 0 0 0-3.373 12.372c.181-.587.417-1.158.707-1.714s.617-1.112.979-1.668c-.217-.464-.326-.85-.326-1.159 0-.37.091-.556.272-.556.181 0 .381.262.598.788V19c.508-.71 1.016-1.36 1.523-1.946a13.34 13.34 0 0 1 1.687-1.622c1.704-1.421 3.535-2.132 5.493-2.132 1.016 0 1.687.247 2.013.741.109.155.091.248-.054.278-.145.093-.272.062-.381-.092-.109-.155-.326-.232-.653-.232-1.197 0-2.828.788-4.895 2.364-1.596 1.204-2.956 2.456-4.08 3.753.834 1.298 2.067 2.58 3.699 3.847 1.668 1.328 3.155 2.116 4.46 2.363.073 0 .109.015.109.046 0 .217-.689.325-2.067.325-.508 0-.888-.047-1.142-.14l-.871-.324a4.543 4.543 0 0 1-.435-.139c-.471-.216-.979-.633-1.523-1.251a21.582 21.582 0 0 1-2.883-3.939c-1.305 1.607-2.121 3.337-2.447 5.19v.186c0 .278-.073.417-.218.417Z" fill="#8E7F7F"/><path d="M115.541 27.11c-.907 0-1.65-.355-2.23-1.066-.581-.71-.871-1.622-.871-2.734 0-.896.182-1.808.544-2.734 1.342-3.46 2.992-5.268 4.95-5.422.218-.217.526-.325.925-.325.725 0 1.432.278 2.121.834.726.556 1.124 1.143 1.197 1.761.471.495 1.16.742 2.067.742.29 0 .725-.031 1.305-.093a13.534 13.534 0 0 1 1.306-.093c.145 0 .181.078.109.232-.037.124-.218.263-.544.417-.653.278-1.469.448-2.448.51h-.653c-.616 0-1.069-.062-1.36-.185.182 1.174-.471 2.857-1.958 5.05-1.341 2.07-2.828 3.106-4.46 3.106Zm.326-.927c.943 0 1.958-.726 3.046-2.178.29-.402.562-.85.816-1.344.29-.494.526-1.05.707-1.668.363-1.05.508-1.808.436-2.271-1.342-.185-2.122-.85-2.339-1.993-.98.247-1.922 1.313-2.829 3.198-.834 1.76-1.251 3.182-1.251 4.263 0 1.329.471 1.993 1.414 1.993Z" fill="#8E7F7F"/></svg>