<svg aria-hidden="true" style="width:0;height:0;position:absolute;overflow:hidden" xmlns="http://www.w3.org/2000/svg"><defs><symbol id="icon-logo" viewBox="0 0 107 32"><path fill="#8e7f7f" style="fill:var(--color1,#8e7f7f)" d="M56.749 7.846c-.084 0-.126-.036-.126-.108a.812.812 0 0 1 .014-.123l-.001.005a.319.319 0 0 1 .063-.151l-.001.001c.27-.029.471-.101.606-.215s.264-.297.39-.547L60.806.354c.042-.086.118-.129.227-.129h.113l2.973 6.483c.118.264.219.444.302.537s.206.147.366.161c.059.008.13.011.214.011h.253c0 .035-.005.083-.013.14a.323.323 0 0 1-.025.139c-.025.072-.054.115-.088.129a.226.226 0 0 1-.075.022H62.796c-.084 0-.126-.036-.126-.108a.812.812 0 0 1 .014-.123l-.001.005a.319.319 0 0 1 .063-.151l-.001.001c.202-.022.357-.061.467-.118a.293.293 0 0 0 .164-.263l-.001-.018v.001c0-.086-.034-.207-.101-.365l-.591-1.321h-3.767l-.643 1.321c-.093.2-.138.347-.138.44 0 .086.025.147.076.183a.643.643 0 0 0 .227.076c.059.007.138.01.239.01h.29a.939.939 0 0 1-.013.14.323.323 0 0 1-.025.139c-.025.072-.055.115-.088.129a.226.226 0 0 1-.075.022H56.75zm2.393-2.941h3.327L60.931 1.47c-.042-.086-.084-.086-.126 0l-1.663 3.435zm6.699 2.941c-.084 0-.126-.036-.126-.108 0-.029.004-.067.013-.118a.32.32 0 0 1 .064-.151l-.001.001c.294-.029.487-.09.579-.183.101-.093.16-.229.177-.408.008-.093.017-.24.025-.44s.012-.43.012-.686c.008-.265.013-.526.013-.783 0-.244-.004-.462-.013-.655 0-.2-.004-.347-.013-.44-.008-.143-.042-.247-.101-.312-.051-.064-.147-.103-.29-.118l-.466-.042c-.059 0-.088-.029-.088-.086a.403.403 0 0 1 .126-.29c.135-.036.302-.065.504-.086s.378-.033.53-.033c.184 0 .314.04.39.118.076.072.114.194.114.366v.236c.244-.264.546-.476.907-.633a2.659 2.659 0 0 1 1.128-.247h.005c.537 0 .966.136 1.285.408.328.271.491.697.491 1.277v2.104c.008.215.017.408.025.579.008.1.034.168.076.204a.46.46 0 0 0 .138.065c.192.02.415.031.641.032h.001c0 .035-.004.089-.013.161a.585.585 0 0 1-.038.165l.001-.004c-.025.072-.072.108-.139.108h-2.154c-.084 0-.126-.036-.126-.108a.812.812 0 0 1 .014-.123l-.001.005a.319.319 0 0 1 .063-.151l-.001.001c.286-.029.483-.09.592-.183s.177-.229.202-.408c.017-.086.025-.254.025-.505.008-.25.012-.522.012-.815 0-.221-.003-.43-.012-.622 0-.194-.004-.34-.013-.44-.025-.401-.16-.698-.403-.891s-.55-.294-.92-.301h-.04c-.404 0-.778.125-1.087.337l.006-.004a1.683 1.683 0 0 0-.68.869c-.008.186-.013.376-.013.569v1.406c.008.243.017.458.025.644.008.15.08.236.214.258a8.27 8.27 0 0 0 .643.032c0 .035-.005.083-.013.14a.323.323 0 0 1-.025.139c-.025.072-.055.115-.088.129a.226.226 0 0 1-.075.022h-2.104zm7.185 0c-.084 0-.126-.036-.126-.108a.813.813 0 0 1 .013-.123l-.001.005a.32.32 0 0 1 .064-.151l-.001.001c.294-.029.487-.09.579-.183.101-.093.16-.229.177-.408.008-.093.017-.24.025-.44s.012-.43.012-.686c.008-.265.013-.526.013-.783 0-.244-.004-.462-.013-.655v-.063c0-.133-.005-.264-.014-.395l.001.018c-.008-.143-.042-.247-.101-.312-.051-.064-.147-.103-.289-.118l-.467-.042c-.059 0-.088-.029-.088-.086a.403.403 0 0 1 .126-.29c.135-.036.302-.065.504-.086s.379-.033.53-.033c.184 0 .315.04.39.118.076.072.114.194.114.366v.236c.244-.264.546-.476.907-.633a2.659 2.659 0 0 1 1.128-.247h.005c.537 0 .966.136 1.285.408.328.271.491.697.491 1.277v2.104c.008.215.017.408.025.579.008.1.034.168.076.204a.454.454 0 0 0 .139.065c.192.02.415.031.641.032h.001c0 .035-.005.089-.013.161a.553.553 0 0 1-.039.165l.001-.004c-.025.072-.072.108-.139.108h-2.154c-.084 0-.126-.036-.126-.108 0-.029.004-.067.013-.118a.319.319 0 0 1 .063-.151l-.001.001c.286-.029.483-.09.592-.183s.177-.229.202-.408c.017-.086.025-.254.025-.505.008-.25.013-.522.013-.815 0-.221-.004-.43-.013-.622 0-.194-.004-.34-.013-.44-.025-.401-.16-.698-.403-.891s-.55-.294-.92-.301h-.04a1.92 1.92 0 0 0-1.088.337l.007-.004a1.683 1.683 0 0 0-.68.869c-.008.186-.013.376-.013.569v1.406c.008.243.017.458.025.644.008.15.08.236.214.258a8.27 8.27 0 0 0 .643.032c0 .035-.005.083-.013.14a.323.323 0 0 1-.025.139c-.025.072-.055.115-.088.129a.226.226 0 0 1-.075.022h-2.104zm11.456.107h-.018a.499.499 0 0 1-.385-.182l-.001-.001a.885.885 0 0 1-.177-.48v-.002a3.102 3.102 0 0 1-1.01.541l-.022.006a3.831 3.831 0 0 1-1.106.172h-.002c-.462 0-.862-.122-1.197-.366-.337-.25-.504-.601-.504-1.051 0-.394.131-.705.391-.935.26-.236.672-.411 1.235-.526.571-.121 1.31-.204 2.217-.247v-.236c0-.15-.008-.312-.025-.483a1.108 1.108 0 0 0-.166-.487l.003.005c-.084-.15-.227-.272-.428-.365-.202-.101-.483-.151-.845-.151-.411 0-.718.079-.92.236-.201.152-.319.379-.352.687a.569.569 0 0 0-.118.012l.004-.001h-.134c-.149 0-.294-.02-.431-.057l.012.003c-.135-.035-.202-.11-.202-.225s.076-.232.227-.354c.152-.13.352-.248.605-.355s.529-.194.831-.258c.268-.067.576-.107.894-.108h.001c.302 0 .588.046.857.14.278.086.499.236.668.451s.243.512.227.891c-.008.2-.017.455-.025.762v1.524c.008.193.013.357.013.494.008.193.034.307.076.343.051.029.122.04.214.033h.013l.63-.033c.051 0 .076.025.076.076a.547.547 0 0 1-.039.164l.001-.004a.3.3 0 0 1-.088.162 4.243 4.243 0 0 1-.576.154l-.104.018c-.135.021-.24.032-.315.032zM83.89 6.88l.012-1.481c-.28-.025-.609-.041-.941-.042h-.003c-.555 0-.983.045-1.285.139s-.512.225-.63.397a.988.988 0 0 0-.177.59c0 .337.126.584.379.741.252.15.55.225.894.225.303 0 .609-.051.92-.15.32-.101.596-.24.832-.419zM12.552 24.707c-1.924 0-3.696-.364-5.314-1.092-4.764-.026-7.145-1.848-7.145-5.464 0-.755.137-1.588.413-2.498a14.277 14.277 0 0 1-.505-3.743v-.004c0-2.185 1.314-4.163 3.94-5.933-.152-2.653.977-4.476 3.39-5.464A5.84 5.84 0 0 1 9.73.002h.031-.002c2.413 0 4.719 1.118 6.918 3.356 2.047.339 3.726 1.132 5.039 2.381 1.375 1.301 2.062 2.863 2.062 4.684 0 2.212-.779 4.346-2.336 6.401-.398 2.341-1.436 4.241-3.116 5.698-1.648 1.457-3.573 2.186-5.772 2.186zM4.444 5.7c2.779-1.718 6.093-2.576 9.941-2.576.397 0 .809.026 1.237.078-2.077-1.873-4.123-2.81-6.14-2.81-.733 0-1.39.131-1.969.391-2.138.884-3.162 2.524-3.07 4.918zm2.29 16.626c1.344 0 2.704-.195 4.077-.585A21.695 21.695 0 0 0 15 19.967l-.112.057c2.688-1.482 4.704-3.304 6.047-5.464a23.761 23.761 0 0 0-.15-1.603l.012.12a9.656 9.656 0 0 0-.32-1.523c-.672-2.992-2.093-5.581-4.262-7.767a9.425 9.425 0 0 0-1.832-.156c-4.032 0-7.315 1.066-9.85 3.2.061.364.152.716.275 1.054.153.312.306.611.458.898 2.719-2.238 5.483-3.357 8.292-3.357.366 0 .549.092.549.274 0 .156-.198.234-.595.234-2.412 0-4.993 1.209-7.742 3.63 1.343 1.613 2.977 2.42 4.902 2.42 1.588 0 2.733-.729 3.436-2.186 0-.078.045-.118.137-.118.214 0 .29.078.229.235-.764 1.587-2.016 2.381-3.756 2.381-2.047 0-3.803-.807-5.269-2.421-1.924 1.796-3.253 3.67-3.985 5.621.611 2.862 2.031 5.112 4.26 6.752.153.025.321.051.504.077h.504zm14.798-8.976a8.824 8.824 0 0 0 .686-3.434v-.001c0-2.966-1.619-4.918-4.855-5.854a17.172 17.172 0 0 1 2.383 3.345l.045.09a12.162 12.162 0 0 1 1.41 3.987l.01.073.183.897c.031.156.046.312.046.468.03.156.061.299.091.43zm-20.295.351c.763-1.665 1.97-3.2 3.619-4.605-.306-.494-.55-1.132-.733-1.913a9.625 9.625 0 0 0-1.901 2.372l-.025.047c-.702 1.223-1.023 2.589-.962 4.098zm3.527 8.43c-1.619-1.275-2.871-2.914-3.756-4.918a1.236 1.236 0 0 0-.046.337v.016-.001.351c0 2.212 1.268 3.616 3.803 4.215zm7.835 2.263c1.985 0 3.68-.624 5.084-1.873 1.405-1.223 2.367-2.784 2.886-4.684-1.558 1.639-3.436 2.979-5.634 4.02s-4.46 1.614-6.78 1.718c1.313.546 2.794.819 4.444.819zm10.865-.975c-1.161 0-1.741-.208-1.741-.625 0-.494.488-.767 1.465-.819 1.283-.051 2.872-.182 4.764-.39.244-.339.367-.638.367-.898 0-.416-.351-.884-1.054-1.405-1.679-1.249-2.519-2.446-2.519-3.591 0-.39.107-.755.32-1.092 1.038-1.509 2.322-2.264 3.849-2.264.641 0 1.191.143 1.649.43s.687.598.687.937a.608.608 0 0 1-.093.314l.002-.003c-.03.078-.076.118-.137.118s-.137-.078-.229-.234c-.061-.443-.351-.664-.871-.664-.763 0-1.557.351-2.382 1.054-.794.729-1.191 1.418-1.191 2.068 0 .573.443 1.314 1.328 2.224.886.884 1.329 1.549 1.329 1.991 0 .208-.077.468-.229.781a18.75 18.75 0 0 0 1.578-.716l-.113.052a60.923 60.923 0 0 0 2.62-1.272l-.466.219c.091.052-.26.377-1.054.975l-2.933 1.483c-.244.365-.885.676-1.924.937-.947.259-1.955.39-3.024.39zm11.739-.859c-.397 0-.733-.039-1.008-.117a2.415 2.415 0 0 1-.641-.195c-.366-.234-.55-.677-.55-1.327 0-.208.015-.442.045-.702.061-.261.122-.559.184-.898.122-.624.519-1.743 1.191-3.356a11.3 11.3 0 0 0 .366-.898c.122-.261.214-.482.275-.664l.229-.507c-.672 0-1.802.117-3.39.351h-.046c-.122 0-.183-.131-.183-.391 0-.312.137-.507.413-.585.213-.078 1.39-.182 3.527-.312.244-.677.534-1.457.87-2.342.366-.91.779-1.912 1.237-3.005.03-.157.152-.234.366-.234.244 0 .519.182.825.546.306.339.458.664.458.976l.001.03a.463.463 0 0 1-.048.207l.001-.003-2.245 3.824a17.14 17.14 0 0 1 1.054-.039h.962c1.742 0 2.628.117 2.657.351 0 .104-.733.208-2.198.312-.398.027-.749.053-1.054.078-.305 0-.58.026-.825.078l-.87.118c-.337 0-.809 1.079-1.42 3.239-.55 1.925-.825 3.07-.825 3.435 0 .78.337 1.171 1.008 1.171.52 0 1.542-.351 3.07-1.054l.687-.391 1.007-.664c.611-.442.993-.663 1.145-.663.061 0 .107.051.137.156 0 .364-.794 1.015-2.382 1.951-1.65 1.015-2.993 1.522-4.032 1.522z"/><path fill="#8e7f7f" style="fill:var(--color1,#8e7f7f)" d="M41.937 22.521c-.977-.13-1.466-.716-1.466-1.756 0-1.588.855-3.344 2.565-5.269 1.771-2.03 3.605-3.045 5.497-3.045.642 0 1.221.13 1.741.39.55.234.825.611.825 1.132 0 .598-.291.937-.871 1.015.184-.26.275-.521.275-.781 0-.573-.382-.859-1.145-.859-.733 0-1.527.312-2.382.937-2.107 1.535-3.65 3.317-4.627 5.347-.306.624-.458 1.145-.458 1.561 0 .339.137.508.413.508.305 0 .84-.299 1.604-.898.519-.416 1.649-1.679 3.39-3.786.458-.547.825-.819 1.099-.819.244 0 .366.547.366 1.639v2.186c.275 1.145.749 1.718 1.421 1.718.366 0 .809-.104 1.328-.312.55-.235 1.084-.599 1.604-1.093l.825-.741c.092-.026.199.025.32.156-.121.286-.656.767-1.603 1.444-1.191.859-2.291 1.289-3.298 1.289-.275 0-.55-.04-.825-.118-.793-.233-1.313-.962-1.557-2.186a11.146 11.146 0 0 0-.202-.94l.018.082a4.456 4.456 0 0 1-.045-.582v-.199c-.184.312-.718.963-1.604 1.951-1.314 1.457-2.382 2.134-3.206 2.03z"/><path fill="#8e7f7f" style="fill:var(--color1,#8e7f7f)" d="M52.773 32.005c-.091 0-.198-.013-.32-.039a2.35 2.35 0 0 1-.381-.042l.015.002c-.642-.077-1.145-.43-1.512-1.053-.397-.599-.595-1.289-.595-2.069 0-.339.03-.664.092-.976.702-2.731 2.489-7.519 5.36-14.362-.398-.182-.581-.312-.55-.391.152-.468.504-.767 1.054-.897a7.747 7.747 0 0 0 .725-2.137l.008-.049v-.039c0-.26-.183-.598-.549-1.015l-.137-.117c0-.182.198-.221.595-.117.611.157 1.069.377 1.374.664.306.26.428.494.367.702l-.413 1.249-.458 1.249c1.833.989 2.917 2.42 3.253 4.294 0 .13.061.195.184.195.183 0 .534-.143 1.053-.43.856-.494 1.238-.741 1.145-.741.153 0 .168.091.046.273-.092.157-.244.286-.458.391l-1.924 1.015c-.153 2.757-1.374 4.384-3.665 4.878-.122.026-.244.04-.366.04a1.821 1.821 0 0 1-.366.039c-.672 0-1.008-.299-1.008-.898 0-.65.366-1.353 1.099-2.107l.733-.547c.428-.312 1.085-.781 1.971-1.405 0-.573-.244-1.289-.733-2.148-.52-.91-1.039-1.457-1.558-1.638-.092-.052-.901 1.925-2.428 5.932-1.619 4.215-2.535 7.038-2.749 8.469-.183 1.145-.275 1.769-.275 1.874 0 .937.397 1.47 1.191 1.6.306.025.458.104.458.234 0 .078-.092.117-.275.117zm4.123-10.303c.856 0 1.512-.559 1.971-1.679.213-.52.32-1.002.32-1.444v-.233a.632.632 0 0 0-.047-.239l.002.004c-1.192.911-2 1.652-2.428 2.225-.244.364-.366.664-.366.898 0 .312.183.468.549.468zm9.144 1.132c-.916 0-1.68-.234-2.291-.702-.611-.494-.916-1.327-.916-2.498 0-.312.03-.651.092-1.015.275-1.327.916-2.589 1.924-3.786 1.252-1.457 2.55-2.186 3.894-2.186.702 0 1.359.168 1.97.507.611.312.916.781.916 1.405 0 .702-.336 1.432-1.008 2.186h.916c.152 0 .244.013.275.039 0 .156-.564.325-1.695.507-.672.651-1.176.976-1.512.976-.061 0-.092-.026-.092-.078 0 .026.229-.234.687-.781-.397 0-.931.026-1.604.078-.641.025-1.42.091-2.336.195-.336.781-.504 1.509-.504 2.186 0 .859.275 1.482.825 1.873.336.261.748.391 1.237.391h.275a.968.968 0 0 0 .275-.04c1.955-.286 3.849-1.249 5.681-2.888.152-.182.275-.208.366-.078.031.026.046.066.046.118 0 .104-.093.233-.275.39-.641.702-1.649 1.392-3.024 2.068-1.527.755-2.901 1.132-4.123 1.132zm-.321-5.972c.448-.025.973-.04 1.501-.04h.156-.008l2.291-.039c.336-.573.55-1.027.642-1.366s.137-.611.137-.819c0-.547-.244-.82-.733-.82-.611 0-1.284.312-2.016.937-.428.364-.809.729-1.145 1.092a5.298 5.298 0 0 0-.811 1.031l-.013.024zm16.108 6.518c-1.588 0-2.383-.872-2.383-2.615 0-.937.229-2.108.687-3.513l.733-2.225-3.206 3.123c-.764.755-1.359 1.379-1.787 1.873s-.687.846-.778 1.054c-.367.833-.931 1.249-1.695 1.249-.275 0-.366-.117-.275-.351l.733-2.42c.244-.755.413-1.444.504-2.068.093-.65.137-1.223.137-1.717v-.036c0-.18-.017-.357-.048-.528l.003.018a2.368 2.368 0 0 1-.045-.468c0-.339.198-.65.595-.937s.794-.43 1.191-.43c.458 0 .642.222.55.664a24.625 24.625 0 0 1-.364 1.559l.044-.193c-.093.442-.184.884-.275 1.327l-.733 2.848c1.832-1.431 3.771-3.512 5.817-6.244.123-.182.413-.274.871-.274.733 0 1.115.131 1.145.391.061.234-.061.702-.366 1.405-.458 1.145-.779 2.042-.963 2.693-.458 1.639-.687 2.939-.687 3.903 0 .937.244 1.405.733 1.405.551 0 1.177-.26 1.879-.781.642-.468.947-.702.916-.702.092 0 .107.104.045.312-.03.209-.183.43-.458.665-.793.676-1.634 1.015-2.519 1.015z"/><path fill="#8e7f7f" style="fill:var(--color1,#8e7f7f)" d="M85.443 22.482c-.122 0-.366-.157-.733-.468l-.642-.508c0-.807.259-2.355.779-4.644.305-1.249.611-2.447.916-3.591a64.453 64.453 0 0 1 1.054-3.279c1.313-3.695 3.237-6.114 5.772-7.26a4.743 4.743 0 0 1 2.015-.467c.977 0 1.771.377 2.382 1.132l.184.234c.03.13.03.208 0 .234-.061.052-.137.052-.229 0h-.011a.34.34 0 0 1-.218-.079h.001c-.672-.494-1.512-.728-2.52-.702-1.954.025-3.802 2.055-5.543 6.089-1.315 3.025-2.311 6.538-2.817 10.207l-.024.212c.152-.494.351-.975.595-1.444s.52-.937.825-1.405c-.183-.391-.275-.716-.275-.976 0-.312.077-.468.229-.468s.321.221.504.664v.039a22.8 22.8 0 0 1 1.283-1.639c.435-.497.9-.944 1.4-1.35l.021-.017c1.435-1.197 2.977-1.796 4.626-1.796.856 0 1.421.208 1.695.624.092.131.077.209-.045.234-.122.078-.229.052-.321-.077s-.275-.195-.55-.195c-1.008 0-2.382.664-4.123 1.991-1.344 1.014-2.49 2.068-3.436 3.161.702 1.093 1.741 2.173 3.115 3.24 1.405 1.118 2.657 1.782 3.756 1.99.061 0 .092.013.092.039 0 .183-.58.274-1.741.274-.428 0-.748-.04-.962-.118l-.734-.273a3.734 3.734 0 0 1-.393-.126l.026.009c-.397-.182-.825-.533-1.283-1.054a18.237 18.237 0 0 1-2.381-3.23l-.047-.087c-1.099 1.353-1.786 2.81-2.061 4.371v.157c0 .234-.061.351-.184.351z"/><path fill="#8e7f7f" style="fill:var(--color1,#8e7f7f)" d="M97.31 22.834c-.764 0-1.39-.299-1.878-.898s-.734-1.366-.734-2.303c0-.755.153-1.523.458-2.303 1.13-2.914 2.52-4.437 4.169-4.566.184-.183.443-.274.779-.274.611 0 1.206.234 1.786.702.611.468.947.963 1.008 1.483.397.417.977.625 1.741.625.244 0 .611-.026 1.099-.078.32-.041.701-.069 1.087-.078h.013c.122 0 .152.066.092.195-.031.104-.184.222-.458.351-.55.234-1.237.377-2.062.43h-.55c-.519 0-.9-.052-1.145-.156.153.989-.397 2.406-1.649 4.253-1.129 1.743-2.382 2.616-3.756 2.616zm.274-.781c.794 0 1.649-.611 2.565-1.834.244-.339.473-.716.687-1.132.244-.416.443-.884.595-1.405.306-.884.428-1.523.367-1.913-1.13-.156-1.787-.716-1.97-1.679-.825.208-1.619 1.106-2.383 2.693-.702 1.482-1.054 2.68-1.054 3.59 0 1.119.397 1.679 1.191 1.679z"/></symbol><symbol id="icon-menu" viewBox="0 0 32 32"><path d="M2 6h28v6H2zm0 8h28v6H2zm0 8h28v6H2z"/></symbol><symbol id="icon-instagram" viewBox="0 0 32 32"><path fill="#8e7f7f" style="fill:var(--color1,#8e7f7f)" d="M31.904 9.584C31.782 3.893 28.11.217 22.417.096c-1.353-.127-11.478-.129-12.832 0C3.894.218.218 3.891.097 9.584c-.127 1.352-.129 11.48 0 12.833.112 5.677 3.81 9.378 9.488 9.488 1.663.076 2.216.094 6.416.094s4.753-.018 6.416-.094c1.552-.07 2.76-.303 3.92-.753 3.637-1.397 5.487-4.838 5.568-8.735.127-1.351.13-11.481 0-12.833zm-.979 12.789c-.098 5.179-3.372 8.458-8.554 8.554-1.322.126-11.42.128-12.743 0-5.179-.098-8.457-3.372-8.554-8.554-.075-1.646-.093-2.194-.093-6.372C1.099 9.358.208 4.33 6.018 1.762c1.055-.41 2.168-.622 3.609-.688 1.646-.075 2.194-.092 6.372-.092s4.726.017 6.372.093c1.441.066 2.554.278 3.61.688 5.803 2.557 4.922 7.603 5.037 14.238 0 4.179-.018 4.727-.093 6.372z"/><path fill="#8e7f7f" style="fill:var(--color1,#8e7f7f)" d="M24.283 9.922c1.207 0 2.19-.986 2.19-2.198-.103-2.909-4.277-2.908-4.379 0 0 1.212.983 2.198 2.189 2.198zm0-3.479c1.688.054 1.688 2.51 0 2.564-1.688-.054-1.687-2.511 0-2.564zM28.667 21.785a.485.485 0 0 0-.511.467c-.189 3.936-1.942 5.708-5.89 5.89-1.261.122-11.227.123-12.488 0-5.662-.153-6.115-4.096-5.911-8.942.009-1.353.033-4.826.022-6.631-.003-.633-.971-.651-.98 0a493.78 493.78 0 0 1-.022 6.621c-.064 2.03-.015 4.834.589 6.141 2.083 4.752 6.604 3.698 12.546 3.88 7.275-.082 12.578.838 13.113-6.915a.491.491 0 0 0-.468-.511z"/><path fill="#8e7f7f" style="fill:var(--color1,#8e7f7f)" d="M28.5 6.683c-2.021-4.713-6.663-3.719-12.546-3.88C8.796 2.8 3.212 2.152 2.841 9.718c-.012.645.934.688.979.044.189-3.936 1.942-5.708 5.89-5.89 1.27-.123 11.217-.124 12.489 0 3.947.178 5.701 1.958 5.89 5.89.089 1.039.139 6.451 0 9.235-.012.635.945.682.979.029l.091-3.019c0-4.148-.016-4.642-.091-6.289-.072-1.585-.341-2.455-.567-3.035z"/><path fill="#8e7f7f" style="fill:var(--color1,#8e7f7f)" d="M7.579 16c0 4.643 3.787 8.421 8.443 8.421 11.201-.463 11.197-16.381 0-16.842-4.655 0-8.443 3.778-8.443 8.421zm15.907 0c0 4.105-3.349 7.445-7.464 7.445-9.903-.409-9.9-14.483 0-14.891 4.116 0 7.464 3.34 7.464 7.446z"/><path fill="#8e7f7f" style="fill:var(--color1,#8e7f7f)" d="M16.015 21.558c7.392-.306 7.39-10.812 0-11.116-3.073 0-5.572 2.493-5.572 5.558s2.5 5.558 5.572 5.558zm0-10.154c2.541 0 4.608 2.062 4.608 4.596s-2.067 4.596-4.608 4.596c-6.113-.253-6.111-8.94 0-9.192z"/></symbol><symbol id="icon-telegram" viewBox="0 0 32 32"><path fill="#8e7f7f" style="fill:var(--color1,#8e7f7f)" d="M31.198 5.897c-.268-.051-.518.168-.561.489l-2.955 22.306-.004.04c-.001.018-.149 1.775-1.131 2.053-1.072.302-3.12-1.193-3.559-1.614-.078-.07-.331-.27-.897-.714-1.646-1.292-5.5-4.319-7.087-5.933-.617-.598-.683-1.416.091-2.169 2.806-3.091 6.236-7.017 8.341-9.547.416-.5 1.371-1.976.807-2.796-.479-.696-1.491-.313-3.488 1.32L9.574 18.386c-.522.442.002 1.398.547.976.117.199 16.187-13.865 12.622-9.386-2.097 2.52-5.514 6.432-8.302 9.503-1.168 1.19-1.214 2.765-.073 3.942 1.636 1.663 5.385 4.607 7.186 6.022.422.332.786.617.833.659.363.349 2.319 1.897 3.86 1.897 1.868.063 2.395-2.595 2.403-3.139l2.953-22.289c.043-.321-.139-.623-.406-.674z"/><path fill="#8e7f7f" style="fill:var(--color1,#8e7f7f)" d="M31.309.437c-.953-.859-2.44-.201-2.615-.119C24.548 2.382 7.096 11.069 2.217 13.465c-2.209.936-2.921 2.745-1.43 4.002a.463.463 0 0 0 .101.058c.028.011 2.812 1.157 5.172 2.008.622.207.894-.89.282-1.127a143.3 143.3 0 0 1-5.071-1.968c-.708-.648-.003-1.215 1.31-1.88C7.52 12.131 24.848 3.506 29.056 1.412c.813-.333 2.162-.601 1.952 1.305-.024.324.176.609.445.638.265.029.507-.211.531-.534.081-1.104-.146-1.905-.675-2.382z"/></symbol><symbol id="icon-tiktok" viewBox="0 0 27 32"><path fill="#8e7f7f" style="fill:var(--color1,#8e7f7f)" d="M27.052 7.897a.452.452 0 0 0-.349-.132c-1.818.125-3.277-.268-4.455-1.202-1.594-1.264-2.356-3.09-2.547-6.105a.477.477 0 0 0-.466-.457h-4.816a.48.48 0 0 0-.467.49c.002 6.589.005 12.367-.012 19.302.009.641.92.651.934.003.017-6.793.012-12.382.012-18.814h3.917c.191 4.186 2.73 7.969 7.464 7.785v4.336c-1.996-.144-3.906-.242-5.731-1.25-.481-.16-1.503-.998-1.686-.059-.051.429.06 7.414.039 9.638C18.636 33.46 2.49 34.627.972 22.366c-.453-4.864 3.107-9.468 7.775-10.053.612-.089.496-1.041-.111-.974-5.16.647-9.095 5.74-8.593 11.123 1.675 13.509 19.499 12.226 19.779-1.041.021-2.438-.068-7.117-.051-8.851.888.412 1.757.858 2.682 1.068 1.406.32 2.821.342 4.232.492.267.034.519-.206.514-.488V8.257a.506.506 0 0 0-.148-.359z"/><path fill="#8e7f7f" style="fill:var(--color1,#8e7f7f)" d="M4.922 21.643c.084 5.738 7.575 7.333 9.65 1.928.092-.253-.028-.537-.269-.633s-.511.029-.603.283c-1.679 4.383-7.775 3.092-7.844-1.58-.005-2.111 1.385-3.886 3.306-4.221.694-.119 1.507-.01 2.248-.014a.48.48 0 0 0 .467-.49v-5.107c-.009-.64-.923-.649-.934 0v4.606c-3.16-.464-6.008 1.705-6.02 5.228z"/></symbol><symbol id="icon-youtube" viewBox="0 0 50 32"><path fill="#8e7f7f" style="fill:var(--color1,#8e7f7f)" d="M49.355 5.294c-.63-2.122-2.497-3.792-4.865-4.359-3.209-.77-13.807-.91-18.216-.934-1.013.02-1.015 1.349-.005 1.373 3.392.019 14.701.138 17.82.887 1.838.44 3.283 1.737 3.775 3.384.983 3.287.994 10.284.994 10.355s-.012 7.07-.995 10.356c-.491 1.646-1.938 2.942-3.774 3.382-3.669.88-18.736.89-18.888.89s-15.219-.01-18.888-.891c-1.837-.44-3.283-1.736-3.774-3.382-.984-3.286-.995-10.286-.995-10.356s.012-7.07.995-10.356c.491-1.646 1.938-2.942 3.775-3.382 2.858-.686 12.652-.843 16.729-.879 1.014-.02.997-1.37-.015-1.373C17.889.054 8.833.235 5.912.935c-2.368.567-4.233 2.236-4.864 4.355C.012 8.749.001 15.705.001 15.999s.012 7.25 1.047 10.709c.632 2.12 2.497 3.789 4.864 4.355 3.864.927 18.661.938 19.289.938s15.425-.011 19.289-.938c2.368-.566 4.232-2.235 4.864-4.355 1.035-3.46 1.047-10.415 1.047-10.709s-.012-7.243-1.045-10.704z"/><path fill="#8e7f7f" style="fill:var(--color1,#8e7f7f)" d="M19.815 8.94a.676.676 0 0 0-.384.593v12.929c-.008.369.359.694.771.686a.84.84 0 0 0 .381-.09l12.769-6.464a.655.655 0 0 0 .001-1.193l-12.77-6.465a.86.86 0 0 0-.769.003zm1.16 1.774 10.438 5.284-10.438 5.284V10.714z"/></symbol></defs></svg>