<svg width="40" height="40" viewBox="0 0 40 40" fill="none" xmlns="http://www.w3.org/2000/svg">
<path d="M39.8795 11.9806C39.7275 4.86653 35.1364 0.271581 28.0202 0.120002C26.3284 -0.038735 13.6729 -0.0412613 11.9799 0.120002C4.86666 0.272844 0.271738 4.86316 0.12016 11.9806C-0.0385762 13.6703 -0.0415235 26.3309 0.12016 28.0223C0.259949 35.1187 4.88224 39.7448 11.9799 39.8825C14.059 39.9777 14.75 40 20.0001 40C25.2506 40 25.9411 39.9777 28.0202 39.8825C29.96 39.7945 31.4707 39.504 32.9196 38.9411C37.4661 37.195 39.7785 32.8939 39.8795 28.0223C40.0387 26.3331 40.0416 13.6707 39.8795 11.9806ZM38.6568 27.9663C38.5338 34.4404 34.4417 38.5385 27.9642 38.6594C26.312 38.8164 13.6889 38.819 12.0355 38.6594C5.56181 38.5368 1.46457 34.4446 1.34331 27.9663C1.24942 25.9086 1.2271 25.2244 1.2271 20.0013C1.37447 11.6977 0.261211 5.41263 7.52391 2.20295C8.84264 1.69053 10.2342 1.42526 12.0355 1.34274C14.0931 1.24926 14.7778 1.22737 20.0001 1.22737C25.2223 1.22737 25.907 1.24926 27.9646 1.34316C29.7659 1.42526 31.1575 1.69053 32.4766 2.20337C39.7301 5.4 38.6294 11.7065 38.773 20.0013C38.7726 25.2248 38.7503 25.9095 38.6568 27.9663Z" fill="#8E7F7F"/>
<path d="M30.3535 12.4031C31.8626 12.4031 33.0904 11.1707 33.0904 9.65573C32.9619 6.01994 27.7447 6.02078 27.6167 9.65573C27.6167 11.1707 28.8449 12.4031 30.3535 12.4031ZM30.3535 8.05362C32.4634 8.12099 32.463 11.1917 30.3535 11.2587C28.2436 11.1913 28.2445 8.12057 30.3535 8.05362Z" fill="#8E7F7F"/>
<path d="M35.8341 27.2317C35.4855 27.2178 35.2101 27.478 35.195 27.8152C34.9588 32.7352 32.7676 34.9504 27.8329 35.1782C26.2569 35.331 13.7993 35.3323 12.2225 35.1782C5.14504 34.9866 4.57915 30.0586 4.83346 24.0001C4.84483 22.3083 4.87515 17.9672 4.86083 15.7108C4.85746 14.9192 3.64652 14.8973 3.63642 15.7108C3.65747 17.9748 3.62294 22.2931 3.60905 23.9874C3.52947 26.5247 3.58968 30.03 4.34589 31.6641C6.94924 37.6043 12.6014 36.286 20.0279 36.5146C29.1213 36.4123 35.7499 37.5618 36.4186 27.8708C36.4329 27.5331 36.1714 27.2468 35.8341 27.2317Z" fill="#8E7F7F"/>
<path d="M35.6251 8.35406C33.0988 2.4627 27.2958 3.7048 19.943 3.50396C10.9953 3.50059 4.01512 2.69048 3.55239 12.1482C3.53723 12.9545 4.71954 13.008 4.77554 12.2037C5.01175 7.28375 7.20248 5.06817 12.1376 4.8408C13.7254 4.68712 26.159 4.68627 27.7485 4.8408C32.6823 5.06312 34.8743 7.28796 35.111 12.2037C35.2221 13.5027 35.2849 20.2673 35.1105 23.7469C35.0958 24.5406 36.2916 24.5995 36.3341 23.7835L36.4478 20.0096C36.4478 14.824 36.428 14.2071 36.3337 12.1482C36.2436 10.1671 35.9076 9.07954 35.6251 8.35406Z" fill="#8E7F7F"/>
<path d="M9.47388 19.9999C9.47388 25.8042 14.2082 30.5263 20.0275 30.5263C34.0283 29.9477 34.0241 10.0501 20.0275 9.47363C14.2082 9.47363 9.47388 14.1957 9.47388 19.9999ZM29.358 19.9999C29.358 25.1313 25.1723 29.3065 20.0275 29.3065C7.64862 28.7949 7.65241 11.2025 20.0275 10.693C25.1723 10.6934 29.358 14.8686 29.358 19.9999Z" fill="#8E7F7F"/>
<path d="M20.0182 26.9475C29.2585 26.5656 29.256 13.4329 20.0182 13.0527C16.1773 13.0527 13.0527 16.1694 13.0527 20.0001C13.0527 23.8308 16.1773 26.9475 20.0182 26.9475ZM20.0182 14.2553C23.1942 14.2553 25.7777 16.8325 25.7777 20.0001C25.7777 23.1677 23.1942 25.7454 20.0182 25.7454C12.3769 25.4292 12.3791 14.5698 20.0182 14.2553Z" fill="#8E7F7F"/>
</svg>
