<svg width="127" height="38" viewBox="0 0 127 38" fill="none" xmlns="http://www.w3.org/2000/svg">
<path d="M67.3813 9.31464C67.2816 9.31464 67.2317 9.27215 67.2317 9.18719C67.2317 9.15321 67.2367 9.10648 67.2467 9.04701C67.2566 8.97904 67.2816 8.91957 67.3214 8.8686C67.6406 8.83461 67.8799 8.74965 68.0395 8.61372C68.199 8.47779 68.3536 8.26114 68.5032 7.96378L72.1979 0.41939C72.2478 0.317439 72.3375 0.266464 72.4672 0.266464H72.6018L76.132 7.96378C76.2716 8.27813 76.3913 8.49053 76.491 8.60098C76.5907 8.71142 76.7353 8.77514 76.9248 8.79213C76.9946 8.80063 77.0794 8.80488 77.1791 8.80488C77.2788 8.80488 77.3785 8.80488 77.4783 8.80488C77.4783 8.84736 77.4733 8.90258 77.4633 8.97055C77.4633 9.03852 77.4533 9.09374 77.4334 9.13622C77.4035 9.22118 77.3686 9.27215 77.3287 9.28915C77.2888 9.30614 77.2589 9.31464 77.2389 9.31464H74.5614C74.4616 9.31464 74.4118 9.27215 74.4118 9.18719C74.4118 9.15321 74.4168 9.10648 74.4267 9.04701C74.4367 8.97904 74.4616 8.91957 74.5015 8.8686C74.7409 8.84311 74.9254 8.79638 75.055 8.72841C75.1846 8.66045 75.2495 8.55 75.2495 8.39707C75.2495 8.29512 75.2096 8.15069 75.1298 7.96378L74.4267 6.39628H69.9541L69.1913 7.96378C69.0816 8.20167 69.0267 8.37583 69.0267 8.48628C69.0267 8.58823 69.0566 8.66045 69.1165 8.70293C69.1863 8.74541 69.276 8.77514 69.3857 8.79213C69.4555 8.80063 69.5503 8.80488 69.6699 8.80488C69.7996 8.80488 69.9143 8.80488 70.014 8.80488C70.014 8.84736 70.009 8.90258 69.999 8.97055C69.999 9.03852 69.989 9.09374 69.9691 9.13622C69.9392 9.22118 69.9043 9.27215 69.8644 9.28915C69.8245 9.30614 69.7946 9.31464 69.7746 9.31464H67.3813ZM70.2234 5.82281H74.1724L72.3475 1.74476C72.2976 1.6428 72.2478 1.6428 72.1979 1.74476L70.2234 5.82281Z" fill="#8E7F7F"/>
<path d="M78.1767 9.31464C78.0769 9.31464 78.0271 9.27215 78.0271 9.18719C78.0271 9.15321 78.032 9.10648 78.042 9.04701C78.052 8.97904 78.0769 8.91957 78.1168 8.8686C78.4658 8.83461 78.6952 8.7624 78.8049 8.65195C78.9246 8.5415 78.9944 8.38008 79.0143 8.16768C79.0243 8.05724 79.0343 7.88307 79.0442 7.64518C79.0542 7.4073 79.0592 7.13543 79.0592 6.82957C79.0692 6.51522 79.0742 6.20512 79.0742 5.89927C79.0742 5.61041 79.0692 5.35128 79.0592 5.12189C79.0592 4.884 79.0542 4.70984 79.0442 4.59939C79.0343 4.42947 78.9944 4.30628 78.9246 4.22982C78.8647 4.15335 78.7501 4.10663 78.5805 4.08963L78.0271 4.03866C77.9573 4.03866 77.9224 4.00467 77.9224 3.93671C77.9224 3.80927 77.9722 3.69457 78.0719 3.59262C78.2315 3.55014 78.4309 3.51616 78.6703 3.49067C78.9096 3.46518 79.119 3.45244 79.2985 3.45244C79.5179 3.45244 79.6725 3.49917 79.7623 3.59262C79.852 3.67758 79.8969 3.82201 79.8969 4.02591C79.8969 4.11087 79.8969 4.20433 79.8969 4.30628C80.1861 3.99193 80.5451 3.7413 80.9739 3.55439C81.4027 3.35898 81.8515 3.26128 82.3202 3.26128C82.9584 3.26128 83.467 3.4227 83.8459 3.74555C84.2348 4.06839 84.4293 4.5739 84.4293 5.26207V6.80409C84.4293 7.17791 84.4293 7.4965 84.4293 7.75988C84.4393 8.01476 84.4492 8.24415 84.4592 8.44805C84.4692 8.56699 84.4991 8.6477 84.549 8.69018C84.5988 8.72417 84.6537 8.74965 84.7135 8.76665C84.7833 8.77514 84.893 8.78364 85.0426 8.79213C85.2022 8.80063 85.3468 8.80488 85.4764 8.80488C85.4764 8.84736 85.4714 8.91108 85.4614 8.99604C85.4515 9.081 85.4365 9.14472 85.4166 9.18719C85.3866 9.27215 85.3318 9.31464 85.252 9.31464H82.6941C82.5944 9.31464 82.5445 9.27215 82.5445 9.18719C82.5445 9.15321 82.5495 9.10648 82.5595 9.04701C82.5695 8.97904 82.5944 8.91957 82.6343 8.8686C82.9733 8.83461 83.2077 8.7624 83.3373 8.65195C83.467 8.5415 83.5468 8.38008 83.5767 8.16768C83.5966 8.06573 83.6066 7.86608 83.6066 7.56872C83.6166 7.27136 83.6215 6.94852 83.6215 6.60018C83.6215 6.33681 83.6166 6.09043 83.6066 5.86104C83.6066 5.63165 83.6016 5.45748 83.5916 5.33854C83.5617 4.86276 83.4022 4.51018 83.113 4.28079C82.8238 4.0514 82.4598 3.93246 82.021 3.92396C81.5423 3.91547 81.0985 4.04715 80.6897 4.31902C80.2908 4.59089 80.0215 4.93498 79.8819 5.35128C79.8719 5.57218 79.867 5.79732 79.867 6.02671C79.867 6.2561 79.867 6.47699 79.867 6.68939C79.867 7.07171 79.867 7.4073 79.867 7.69616C79.8769 7.98502 79.8869 8.2399 79.8969 8.46079C79.9068 8.63921 79.9916 8.74116 80.1512 8.76665C80.221 8.77514 80.3456 8.78364 80.5251 8.79213C80.7046 8.80063 80.8343 8.80488 80.9141 8.80488C80.9141 8.84736 80.9091 8.90258 80.8991 8.97055C80.8991 9.03852 80.8891 9.09374 80.8692 9.13622C80.8393 9.22118 80.8044 9.27215 80.7645 9.28915C80.7246 9.30614 80.6947 9.31464 80.6747 9.31464H78.1767Z" fill="#8E7F7F"/>
<path d="M86.7077 9.31464C86.6079 9.31464 86.5581 9.27215 86.5581 9.18719C86.5581 9.15321 86.5631 9.10648 86.573 9.04701C86.583 8.97904 86.6079 8.91957 86.6478 8.8686C86.9969 8.83461 87.2262 8.7624 87.3359 8.65195C87.4556 8.5415 87.5254 8.38008 87.5453 8.16768C87.5553 8.05724 87.5653 7.88307 87.5753 7.64518C87.5852 7.4073 87.5902 7.13543 87.5902 6.82957C87.6002 6.51522 87.6052 6.20512 87.6052 5.89927C87.6052 5.61041 87.6002 5.35128 87.5902 5.12189C87.5902 4.884 87.5852 4.70984 87.5753 4.59939C87.5653 4.42947 87.5254 4.30628 87.4556 4.22982C87.3958 4.15335 87.2811 4.10663 87.1115 4.08963L86.5581 4.03866C86.4883 4.03866 86.4534 4.00467 86.4534 3.93671C86.4534 3.80927 86.5032 3.69457 86.603 3.59262C86.7625 3.55014 86.962 3.51616 87.2013 3.49067C87.4406 3.46518 87.6501 3.45244 87.8296 3.45244C88.049 3.45244 88.2035 3.49917 88.2933 3.59262C88.383 3.67758 88.4279 3.82201 88.4279 4.02591C88.4279 4.11087 88.4279 4.20433 88.4279 4.30628C88.7171 3.99193 89.0761 3.7413 89.5049 3.55439C89.9337 3.35898 90.3825 3.26128 90.8512 3.26128C91.4894 3.26128 91.998 3.4227 92.3769 3.74555C92.7659 4.06839 92.9603 4.5739 92.9603 5.26207V6.80409C92.9603 7.17791 92.9603 7.4965 92.9603 7.75988C92.9703 8.01476 92.9803 8.24415 92.9902 8.44805C93.0002 8.56699 93.0301 8.6477 93.08 8.69018C93.1299 8.72417 93.1847 8.74965 93.2445 8.76665C93.3143 8.77514 93.424 8.78364 93.5736 8.79213C93.7332 8.80063 93.8778 8.80488 94.0074 8.80488C94.0074 8.84736 94.0024 8.91108 93.9925 8.99604C93.9825 9.081 93.9675 9.14472 93.9476 9.18719C93.9177 9.27215 93.8628 9.31464 93.7831 9.31464H91.2251C91.1254 9.31464 91.0756 9.27215 91.0756 9.18719C91.0756 9.15321 91.0805 9.10648 91.0905 9.04701C91.1005 8.97904 91.1254 8.91957 91.1653 8.8686C91.5044 8.83461 91.7387 8.7624 91.8684 8.65195C91.998 8.5415 92.0778 8.38008 92.1077 8.16768C92.1276 8.06573 92.1376 7.86608 92.1376 7.56872C92.1476 7.27136 92.1526 6.94852 92.1526 6.60018C92.1526 6.33681 92.1476 6.09043 92.1376 5.86104C92.1376 5.63165 92.1326 5.45748 92.1227 5.33854C92.0927 4.86276 91.9332 4.51018 91.644 4.28079C91.3548 4.0514 90.9908 3.93246 90.552 3.92396C90.0733 3.91547 89.6296 4.04715 89.2207 4.31902C88.8218 4.59089 88.5526 4.93498 88.4129 5.35128C88.403 5.57218 88.398 5.79732 88.398 6.02671C88.398 6.2561 88.398 6.47699 88.398 6.68939C88.398 7.07171 88.398 7.4073 88.398 7.69616C88.408 7.98502 88.4179 8.2399 88.4279 8.46079C88.4379 8.63921 88.5226 8.74116 88.6822 8.76665C88.752 8.77514 88.8767 8.78364 89.0562 8.79213C89.2357 8.80063 89.3653 8.80488 89.4451 8.80488C89.4451 8.84736 89.4401 8.90258 89.4301 8.97055C89.4301 9.03852 89.4201 9.09374 89.4002 9.13622C89.3703 9.22118 89.3354 9.27215 89.2955 9.28915C89.2556 9.30614 89.2257 9.31464 89.2057 9.31464H86.7077Z" fill="#8E7F7F"/>
<path d="M100.31 9.44207C100.11 9.44207 99.9506 9.36986 99.831 9.22543C99.7113 9.0725 99.6415 8.88134 99.6215 8.65195C99.2625 8.94081 98.8537 9.15746 98.3949 9.30189C97.9362 9.43783 97.4974 9.50579 97.0786 9.50579C96.5301 9.50579 96.0564 9.36136 95.6575 9.0725C95.2586 8.77514 95.0592 8.35884 95.0592 7.8236C95.0592 7.35632 95.2138 6.98675 95.5229 6.71488C95.832 6.43451 96.3207 6.22636 96.9888 6.09043C97.667 5.946 98.5445 5.84829 99.6215 5.79732V5.51695C99.6215 5.33854 99.6116 5.14738 99.5916 4.94348C99.5717 4.73957 99.5069 4.54841 99.3972 4.37C99.2974 4.19159 99.1279 4.04715 98.8886 3.93671C98.6492 3.81776 98.3152 3.75829 97.8864 3.75829C97.3977 3.75829 97.0337 3.85175 96.7944 4.03866C96.555 4.21707 96.4154 4.48894 96.3755 4.85427C96.3357 4.85427 96.2908 4.85852 96.2409 4.86701C96.1911 4.86701 96.1412 4.86701 96.0913 4.86701C95.9118 4.86701 95.7423 4.84577 95.5827 4.80329C95.4232 4.76081 95.3434 4.67161 95.3434 4.53567C95.3434 4.39974 95.4332 4.25955 95.6127 4.11512C95.7922 3.96219 96.0315 3.82201 96.3307 3.69457C96.6298 3.56713 96.9589 3.46518 97.3179 3.38872C97.6769 3.30376 98.0309 3.26128 98.38 3.26128C98.739 3.26128 99.078 3.3165 99.3972 3.42695C99.7262 3.5289 99.9905 3.70732 100.19 3.9622C100.389 4.21707 100.479 4.56965 100.459 5.01994C100.449 5.25783 100.439 5.55943 100.429 5.92476C100.429 6.28159 100.429 6.63841 100.429 6.99524C100.429 7.25862 100.429 7.505 100.429 7.73439C100.439 7.96378 100.444 8.15919 100.444 8.32061C100.454 8.55 100.484 8.68594 100.534 8.72841C100.594 8.7624 100.679 8.77514 100.788 8.76665C100.798 8.76665 100.803 8.76665 100.803 8.76665L101.551 8.72841C101.611 8.72841 101.641 8.75815 101.641 8.81762C101.641 8.8601 101.626 8.92382 101.596 9.00878C101.576 9.09374 101.541 9.15746 101.491 9.19994C101.432 9.22543 101.322 9.25941 101.162 9.30189C101.013 9.33587 100.853 9.36986 100.684 9.40384C100.524 9.42933 100.399 9.44207 100.31 9.44207ZM99.6066 8.16768L99.6215 6.40902C99.2027 6.37504 98.8287 6.35805 98.4997 6.35805C97.8415 6.35805 97.3329 6.41327 96.9739 6.52372C96.6149 6.63417 96.3656 6.79134 96.226 6.99524C96.0863 7.19065 96.0165 7.42429 96.0165 7.69616C96.0165 8.09547 96.1661 8.38858 96.4653 8.57549C96.7645 8.7539 97.1185 8.84311 97.5273 8.84311C97.8864 8.84311 98.2503 8.78364 98.6193 8.6647C98.9983 8.54575 99.3274 8.38008 99.6066 8.16768Z" fill="#8E7F7F"/>
<path d="M14.9041 29.3341C12.6195 29.3341 10.5163 28.9016 8.59434 28.0366C2.93731 28.0057 0.108789 25.8431 0.108789 21.5488C0.108789 20.6528 0.271973 19.6642 0.59834 18.5829C0.199447 17.0691 0 15.5862 0 14.1341C0 11.539 1.55931 9.19106 4.67793 7.09024C4.49662 3.93902 5.83835 1.77642 8.70313 0.60244C9.60971 0.200813 10.5707 0 11.586 0C14.4508 0 17.1887 1.32846 19.7996 3.98537C22.2293 4.38699 24.2237 5.32927 25.783 6.81219C27.4149 8.35691 28.2308 10.2106 28.2308 12.3732C28.2308 14.9992 27.3061 17.5325 25.4567 19.9732C24.9852 22.7537 23.7523 25.0089 21.7578 26.739C19.7996 28.4691 17.5151 29.3341 14.9041 29.3341ZM5.27627 6.76585C8.57621 4.72683 12.5108 3.70732 17.0799 3.70732C17.5513 3.70732 18.0409 3.73821 18.5486 3.8C16.0827 1.57561 13.653 0.463414 11.2597 0.463414C10.3894 0.463414 9.60971 0.617886 8.92071 0.926828C6.3823 1.97723 5.16748 3.92358 5.27627 6.76585ZM7.996 26.5073C9.59158 26.5073 11.2053 26.2756 12.8371 25.8122C14.469 25.3179 16.0827 24.6382 17.6782 23.7732C20.8694 22.0122 23.2627 19.8496 24.8583 17.2854C24.8221 16.6984 24.7677 16.1114 24.6951 15.5244C24.6226 14.9374 24.4957 14.335 24.3144 13.7171C23.5166 10.1642 21.8304 7.09024 19.2557 4.49512C18.6392 4.37154 17.9139 4.30976 17.0799 4.30976C12.2932 4.30976 8.3949 5.57642 5.38506 8.10975C5.45759 8.54228 5.56638 8.95935 5.71143 9.36098C5.89275 9.73171 6.07406 10.087 6.25538 10.4268C9.48279 7.76992 12.7646 6.44146 16.1008 6.44146C16.5359 6.44146 16.7535 6.54959 16.7535 6.76585C16.7535 6.95122 16.5178 7.0439 16.0464 7.0439C13.1816 7.0439 10.1174 8.48049 6.85372 11.3537C8.44929 13.2691 10.3894 14.2268 12.6739 14.2268C14.5596 14.2268 15.9195 13.3618 16.7535 11.6317C16.7535 11.539 16.8079 11.4927 16.9167 11.4927C17.1706 11.4927 17.2612 11.5854 17.1887 11.7707C16.2821 13.6553 14.7953 14.5976 12.7283 14.5976C10.2987 14.5976 8.21358 13.6398 6.47295 11.7244C4.18838 13.8561 2.61094 16.0805 1.74063 18.3976C2.46589 21.7959 4.15212 24.4683 6.79932 26.4146C6.98064 26.4455 7.18008 26.4764 7.39766 26.5073C7.61524 26.5073 7.81469 26.5073 7.996 26.5073ZM25.5654 15.8488C26.1094 14.5203 26.3814 13.161 26.3814 11.7707C26.3814 8.24878 24.4594 5.93171 20.6155 4.81951C21.7397 6.05528 22.7007 7.41463 23.4985 8.89756C24.3325 10.3805 24.8946 11.987 25.1847 13.7171L25.4023 14.7829C25.4385 14.9683 25.4567 15.1537 25.4567 15.339C25.4929 15.5244 25.5292 15.6943 25.5654 15.8488ZM1.46865 16.2659C2.37523 14.2886 3.80762 12.4659 5.76583 10.7976C5.40319 10.2106 5.11309 9.45366 4.89551 8.52683C3.95267 9.39187 3.19115 10.3496 2.61094 11.4C1.77689 12.852 1.39613 14.474 1.46865 16.2659ZM5.65704 26.2756C3.73509 24.7618 2.24831 22.8154 1.19668 20.4366C1.16042 20.5602 1.14229 20.6992 1.14229 20.8537C1.14229 20.9772 1.14229 21.1163 1.14229 21.2707C1.14229 23.8967 2.6472 25.565 5.65704 26.2756ZM14.9585 28.9634C17.3156 28.9634 19.3282 28.222 20.9963 26.739C22.6644 25.287 23.8067 23.4333 24.4232 21.178C22.5737 23.1244 20.3436 24.7154 17.7326 25.9512C15.1217 27.187 12.4382 27.8667 9.68223 27.9902C11.2415 28.639 13.0003 28.9634 14.9585 28.9634Z" fill="#8E7F7F"/>
<path d="M27.8598 27.8049C26.4818 27.8049 25.7928 27.5577 25.7928 27.0634C25.7928 26.4764 26.373 26.152 27.5334 26.0902C29.0565 26.0285 30.9422 25.874 33.1905 25.6268C33.4806 25.2252 33.6256 24.8699 33.6256 24.561C33.6256 24.0667 33.2086 23.5106 32.3745 22.8927C30.3801 21.4098 29.3828 19.9886 29.3828 18.6293C29.3828 18.1659 29.5098 17.7333 29.7636 17.3317C30.9965 15.5398 32.5196 14.6439 34.3328 14.6439C35.0943 14.6439 35.747 14.8138 36.291 15.1537C36.8349 15.4935 37.1069 15.8642 37.1069 16.2659C37.1069 16.3894 37.0706 16.513 36.9981 16.6366C36.9618 16.7293 36.9074 16.7756 36.8349 16.7756C36.7624 16.7756 36.6717 16.6829 36.5629 16.4976C36.4904 15.9724 36.1459 15.7098 35.5294 15.7098C34.6229 15.7098 33.68 16.1268 32.7009 16.961C31.7581 17.826 31.2867 18.6447 31.2867 19.4171C31.2867 20.0967 31.8125 20.9772 32.8641 22.0585C33.9157 23.1089 34.4415 23.8967 34.4415 24.422C34.4415 24.6691 34.3509 24.978 34.1696 25.3488C34.641 25.1634 35.2212 24.9008 35.9102 24.561C36.6355 24.2211 37.4876 23.8041 38.4667 23.3098C38.5755 23.3715 38.1585 23.7577 37.2157 24.4683L33.7344 26.2293C33.4443 26.6618 32.6828 27.0325 31.4498 27.3415C30.3257 27.6504 29.129 27.8049 27.8598 27.8049Z" fill="#8E7F7F"/>
<path d="M41.798 26.7854C41.3266 26.7854 40.9277 26.739 40.6013 26.6463C40.2749 26.5846 40.0211 26.5073 39.8398 26.4146C39.4046 26.1366 39.187 25.6114 39.187 24.839C39.187 24.5919 39.2052 24.3138 39.2414 24.0049C39.314 23.6959 39.3865 23.3407 39.459 22.939C39.6041 22.1976 40.0755 20.8691 40.8733 18.9537C41.0546 18.552 41.1996 18.1967 41.3084 17.8878C41.4535 17.5789 41.5623 17.3163 41.6348 17.1L41.9068 16.4976C41.109 16.4976 39.7673 16.6366 37.8816 16.9146H37.8272C37.6821 16.9146 37.6096 16.7602 37.6096 16.4512C37.6096 16.0805 37.7728 15.8488 38.0991 15.7561C38.353 15.6634 39.7491 15.5398 42.2875 15.3854C42.5776 14.5821 42.9221 13.6553 43.321 12.6049C43.7562 11.5236 44.2457 10.3341 44.7897 9.03658C44.8259 8.85122 44.971 8.75854 45.2248 8.75854C45.5149 8.75854 45.8413 8.9748 46.2039 9.40732C46.5666 9.80894 46.7479 10.1951 46.7479 10.5659C46.7479 10.6894 46.7298 10.7821 46.6935 10.8439L44.0282 15.3854C44.4996 15.3545 44.9166 15.339 45.2792 15.339C45.6781 15.339 46.0589 15.339 46.4215 15.339C48.4885 15.339 49.5401 15.478 49.5764 15.7561C49.5764 15.8797 48.7061 16.0033 46.9655 16.1268C46.494 16.1577 46.077 16.1886 45.7144 16.2195C45.3518 16.2195 45.0254 16.2504 44.7353 16.3122L43.7018 16.4512C43.3029 16.4512 42.7408 17.7333 42.0156 20.2976C41.3628 22.5837 41.0365 23.9431 41.0365 24.3756C41.0365 25.3024 41.4354 25.7659 42.2331 25.7659C42.8496 25.7659 44.0644 25.3488 45.8776 24.5146C46.0951 24.3911 46.3671 24.2366 46.6935 24.0512C47.0199 23.835 47.4188 23.5724 47.8902 23.2634C48.6154 22.7382 49.0687 22.4756 49.25 22.4756C49.3226 22.4756 49.377 22.5374 49.4132 22.661C49.4132 23.0935 48.4704 23.8659 46.5847 24.9781C44.6265 26.1829 43.0309 26.7854 41.798 26.7854Z" fill="#8E7F7F"/>
<path d="M49.7936 26.739C48.6331 26.5846 48.0529 25.8894 48.0529 24.6537C48.0529 22.7691 49.0683 20.6837 51.099 18.3976C53.2023 15.9878 55.3781 14.7829 57.6264 14.7829C58.3879 14.7829 59.0769 14.9374 59.6934 15.2463C60.3461 15.5244 60.6725 15.9724 60.6725 16.5902C60.6725 17.3008 60.328 17.7024 59.639 17.7951C59.8566 17.4862 59.9653 17.1772 59.9653 16.8683C59.9653 16.1886 59.5121 15.8488 58.6055 15.8488C57.7352 15.8488 56.7923 16.2195 55.777 16.961C53.2748 18.7837 51.4435 20.9 50.2831 23.3098C49.9205 24.0512 49.7392 24.6691 49.7392 25.1634C49.7392 25.565 49.9023 25.7659 50.2287 25.7659C50.5913 25.7659 51.2259 25.4106 52.1325 24.7C52.749 24.2057 54.0907 22.7073 56.1577 20.2049C56.7017 19.5561 57.1368 19.2317 57.4632 19.2317C57.7533 19.2317 57.8984 19.8805 57.8984 21.178V23.7732C58.2247 25.1325 58.7868 25.8122 59.5846 25.8122C60.0197 25.8122 60.5456 25.6886 61.162 25.4415C61.8148 25.1634 62.4494 24.7309 63.0658 24.1439L64.0449 23.2634C64.1537 23.2325 64.2806 23.2943 64.4257 23.4488C64.2806 23.7886 63.646 24.3602 62.5219 25.1634C61.1076 26.1829 59.8022 26.6927 58.6055 26.6927C58.2791 26.6927 57.9527 26.6463 57.6264 26.5537C56.6835 26.2756 56.0671 25.4106 55.777 23.9585C55.7044 23.5569 55.6319 23.2171 55.5594 22.939C55.5231 22.661 55.505 22.4293 55.505 22.2439C55.505 22.1512 55.505 22.074 55.505 22.0122C55.2874 22.3829 54.6528 23.1553 53.6012 24.3293C52.0419 26.0593 50.7727 26.8626 49.7936 26.739Z" fill="#8E7F7F"/>
<path d="M62.6609 38C62.5521 38 62.4251 37.9846 62.2801 37.9537C62.1713 37.9537 62.0262 37.9382 61.8449 37.9073C61.0834 37.8146 60.4851 37.3976 60.0499 36.6561C59.5785 35.9455 59.3428 35.1268 59.3428 34.2C59.3428 33.7984 59.379 33.4122 59.4516 33.0415C60.2856 29.7976 62.407 24.113 65.8157 15.9878C65.3443 15.7715 65.1267 15.6171 65.163 15.5244C65.3443 14.9683 65.7613 14.613 66.4141 14.4585C66.813 13.6862 67.1031 12.8211 67.2844 11.8634V11.8171C67.2844 11.5081 67.0668 11.1065 66.6317 10.6122L66.4685 10.4732C66.4685 10.2569 66.7042 10.2106 67.1756 10.3341C67.9009 10.5195 68.4448 10.7821 68.8074 11.122C69.1701 11.4309 69.3151 11.7089 69.2426 11.9561L68.753 13.439C68.5717 13.9333 68.3904 14.4276 68.2091 14.922C70.3849 16.0959 71.6722 17.7951 72.0711 20.0195C72.0711 20.174 72.1436 20.2512 72.2887 20.2512C72.5063 20.2512 72.9233 20.0813 73.5398 19.7415C74.5551 19.1545 75.0084 18.861 74.8996 18.861C75.0809 18.861 75.0991 18.9691 74.954 19.1854C74.8452 19.3707 74.6639 19.5252 74.4101 19.6488L72.1255 20.8537C71.9442 24.1285 70.4937 26.0593 67.7739 26.6463C67.6289 26.6772 67.4838 26.6927 67.3388 26.6927C67.1937 26.7236 67.0487 26.739 66.9036 26.739C66.1058 26.739 65.7069 26.3837 65.7069 25.6732C65.7069 24.9008 66.1421 24.0667 67.0124 23.1707L67.8827 22.522C68.3904 22.1512 69.1701 21.5951 70.2217 20.8537C70.2217 20.174 69.9316 19.3244 69.3514 18.3049C68.7349 17.2236 68.1184 16.5748 67.502 16.3585C67.3932 16.2967 66.4322 18.6447 64.6191 23.4024C62.6971 28.4073 61.6092 31.7593 61.3554 33.4585C61.1378 34.8179 61.029 35.5593 61.029 35.6829C61.029 36.7951 61.5004 37.4285 62.4433 37.5829C62.8059 37.6138 62.9872 37.7065 62.9872 37.861C62.9872 37.9537 62.8784 38 62.6609 38ZM67.5564 25.7659C68.5717 25.7659 69.3514 25.1016 69.8953 23.7732C70.1492 23.1553 70.2761 22.5837 70.2761 22.0585C70.2761 21.9659 70.2761 21.8732 70.2761 21.7805C70.2761 21.6878 70.258 21.5951 70.2217 21.5024C68.8074 22.5837 67.8465 23.4642 67.3388 24.1439C67.0487 24.5764 66.9036 24.9317 66.9036 25.2098C66.9036 25.5805 67.1212 25.7659 67.5564 25.7659Z" fill="#8E7F7F"/>
<path d="M78.4128 27.1098C77.3249 27.1098 76.4183 26.8317 75.693 26.2756C74.9678 25.6886 74.6051 24.7 74.6051 23.3098C74.6051 22.939 74.6414 22.5374 74.7139 22.1049C75.0403 20.5293 75.8018 19.0309 76.9985 17.6098C78.4853 15.8797 80.0265 15.0146 81.622 15.0146C82.4561 15.0146 83.2357 15.2154 83.961 15.6171C84.6863 15.9878 85.0489 16.5439 85.0489 17.2854C85.0489 18.1195 84.65 18.9846 83.8522 19.8805H84.9401C85.1214 19.8805 85.2302 19.8959 85.2665 19.9268C85.2665 20.1122 84.5956 20.313 83.2539 20.5293C82.4561 21.3016 81.8577 21.6878 81.4588 21.6878C81.3863 21.6878 81.3501 21.6569 81.3501 21.5951C81.3501 21.626 81.622 21.3171 82.166 20.6683C81.6946 20.6683 81.06 20.6992 80.2622 20.761C79.5006 20.7919 78.5759 20.8691 77.488 20.9927C77.0892 21.9195 76.8897 22.7846 76.8897 23.5878C76.8897 24.6073 77.2161 25.3488 77.8688 25.8122C78.2677 26.1211 78.7572 26.2756 79.3375 26.2756C79.4463 26.2756 79.555 26.2756 79.6638 26.2756C79.7726 26.2756 79.8814 26.2602 79.9902 26.2293C82.311 25.8894 84.5593 24.7463 86.7351 22.8C86.9164 22.5837 87.0615 22.5528 87.1703 22.7073C87.2065 22.7382 87.2247 22.7846 87.2247 22.8463C87.2247 22.9699 87.1159 23.1244 86.8983 23.3098C86.1368 24.1439 84.9401 24.9626 83.3083 25.7659C81.4951 26.6618 79.8633 27.1098 78.4128 27.1098ZM78.032 20.0195C78.5397 19.9886 79.1924 19.9732 79.9902 19.9732L82.7099 19.9268C83.1088 19.2472 83.3627 18.7065 83.4715 18.3049C83.5802 17.9033 83.6346 17.5789 83.6346 17.3317C83.6346 16.6829 83.3445 16.3585 82.7643 16.3585C82.0391 16.3585 81.2413 16.7293 80.371 17.4707C79.8633 17.9033 79.41 18.3358 79.0111 18.7683C78.6122 19.1699 78.2858 19.587 78.032 20.0195Z" fill="#8E7F7F"/>
<path d="M97.1576 27.7585C95.272 27.7585 94.3291 26.7236 94.3291 24.6537C94.3291 23.5415 94.6011 22.1512 95.145 20.4829L96.0153 17.8415L92.2077 21.5488C91.3012 22.4447 90.594 23.1862 90.0863 23.7732C89.5787 24.3602 89.2704 24.7772 89.1616 25.0244C88.7265 26.013 88.0556 26.5073 87.149 26.5073C86.8227 26.5073 86.7139 26.3683 86.8227 26.0902L87.693 23.2171C87.9831 22.3211 88.1825 21.5024 88.2913 20.761C88.4001 19.9886 88.4545 19.3089 88.4545 18.722C88.4545 18.4748 88.4364 18.2585 88.4001 18.0732C88.3638 17.8878 88.3457 17.7024 88.3457 17.5171C88.3457 17.1154 88.5814 16.7447 89.0528 16.4049C89.5243 16.065 89.9957 15.8951 90.4671 15.8951C91.011 15.8951 91.2286 16.1577 91.1198 16.6829C91.011 17.2081 90.8841 17.7488 90.7391 18.3049C90.6303 18.8301 90.5215 19.3553 90.4127 19.8805L89.5424 23.2634C91.7182 21.5642 94.0209 19.0927 96.4505 15.8488C96.5956 15.6325 96.9401 15.5244 97.484 15.5244C98.3543 15.5244 98.8076 15.6789 98.8439 15.9878C98.9164 16.2659 98.7713 16.822 98.4087 17.6561C97.8648 19.0154 97.484 20.0813 97.2664 20.8537C96.7225 22.8 96.4505 24.3447 96.4505 25.4878C96.4505 26.6 96.7406 27.1561 97.3208 27.1561C97.9736 27.1561 98.7169 26.8472 99.551 26.2293C100.313 25.6732 100.675 25.3951 100.639 25.3951C100.748 25.3951 100.766 25.5187 100.693 25.7659C100.657 26.013 100.476 26.2756 100.149 26.5537C99.2065 27.3569 98.2093 27.7585 97.1576 27.7585Z" fill="#8E7F7F"/>
<path d="M101.451 26.6927C101.306 26.6927 101.016 26.5073 100.581 26.1366L99.8191 25.5341C99.8191 24.5764 100.127 22.7382 100.744 20.0195C101.106 18.5366 101.469 17.1154 101.832 15.7561C102.231 14.3967 102.648 13.0992 103.083 11.8634C104.642 7.47642 106.927 4.60325 109.937 3.2439C110.734 2.87317 111.532 2.6878 112.33 2.6878C113.49 2.6878 114.433 3.13577 115.158 4.03171L115.376 4.30976C115.412 4.46423 115.412 4.55691 115.376 4.5878C115.303 4.64959 115.213 4.64959 115.104 4.5878C114.995 4.5878 114.905 4.55691 114.832 4.49512C114.034 3.90813 113.037 3.63008 111.84 3.66098C109.52 3.69187 107.326 6.10163 105.259 10.8902C103.59 14.8447 102.466 18.9691 101.886 23.2634C102.067 22.6764 102.303 22.1049 102.593 21.5488C102.883 20.9927 103.21 20.4366 103.572 19.8805C103.355 19.4171 103.246 19.0309 103.246 18.722C103.246 18.3512 103.337 18.1659 103.518 18.1659C103.699 18.1659 103.899 18.4285 104.116 18.9537V19C104.624 18.2894 105.132 17.6406 105.639 17.0537C106.183 16.4358 106.745 15.8951 107.326 15.4317C109.03 14.0106 110.861 13.3 112.819 13.3C113.835 13.3 114.506 13.5472 114.832 14.0415C114.941 14.1959 114.923 14.2886 114.778 14.3195C114.633 14.4122 114.506 14.3813 114.397 14.2268C114.288 14.0724 114.071 13.9951 113.744 13.9951C112.547 13.9951 110.916 14.7829 108.849 16.3585C107.253 17.5634 105.893 18.8146 104.769 20.1122C105.603 21.4098 106.836 22.6919 108.468 23.9585C110.136 25.287 111.623 26.0748 112.928 26.322C113.001 26.322 113.037 26.3374 113.037 26.3683C113.037 26.5846 112.348 26.6927 110.97 26.6927C110.462 26.6927 110.082 26.6463 109.828 26.5537L108.957 26.2293C108.74 26.1675 108.595 26.1211 108.522 26.0902C108.051 25.874 107.543 25.4569 106.999 24.839C105.911 23.665 104.95 22.352 104.116 20.9C102.811 22.5065 101.995 24.2366 101.669 26.0902V26.2756C101.669 26.5537 101.596 26.6927 101.451 26.6927Z" fill="#8E7F7F"/>
<path d="M115.541 27.1098C114.634 27.1098 113.891 26.7545 113.311 26.0439C112.73 25.3333 112.44 24.422 112.44 23.3098C112.44 22.4138 112.622 21.5024 112.984 20.5756C114.326 17.1154 115.976 15.3081 117.934 15.1537C118.152 14.9374 118.46 14.8293 118.859 14.8293C119.584 14.8293 120.291 15.1073 120.98 15.6634C121.706 16.2195 122.104 16.8065 122.177 17.4244C122.648 17.9187 123.337 18.1659 124.244 18.1659C124.534 18.1659 124.969 18.135 125.549 18.0732C126.13 18.0114 126.565 17.9805 126.855 17.9805C127 17.9805 127.036 18.0577 126.964 18.2122C126.927 18.3358 126.746 18.4748 126.42 18.6293C125.767 18.9073 124.951 19.0772 123.972 19.139H123.319C122.703 19.139 122.25 19.0772 121.959 18.9537C122.141 20.1276 121.488 21.8114 120.001 24.0049C118.66 26.0748 117.173 27.1098 115.541 27.1098ZM115.867 26.1829C116.81 26.1829 117.825 25.4569 118.913 24.0049C119.203 23.6033 119.475 23.1553 119.729 22.661C120.019 22.1667 120.255 21.6106 120.436 20.9927C120.799 19.9423 120.944 19.1854 120.872 18.722C119.53 18.5366 118.75 17.8724 118.533 16.7293C117.553 16.9764 116.611 18.0423 115.704 19.9268C114.87 21.6878 114.453 23.1089 114.453 24.1902C114.453 25.5187 114.924 26.1829 115.867 26.1829Z" fill="#8E7F7F"/>
</svg>
