<svg aria-hidden="true" style="position: absolute; width: 0; height: 0; overflow: hidden;" version="1.1" xmlns="http://www.w3.org/2000/svg" xmlns:xlink="http://www.w3.org/1999/xlink">
<defs>
<symbol id="icon-logo" viewBox="0 0 107 32">
<path fill="#8e7f7f" style="fill: var(--color1, #8e7f7f)" d="M56.749 7.846c-0.084 0-0.126-0.036-0.126-0.108 0.002-0.043 0.006-0.083 0.014-0.123l-0.001 0.005c0.008-0.057 0.030-0.108 0.063-0.151l-0.001 0.001c0.27-0.029 0.471-0.101 0.606-0.215s0.264-0.297 0.39-0.547l3.112-6.354c0.042-0.086 0.118-0.129 0.227-0.129h0.113l2.973 6.483c0.118 0.264 0.219 0.444 0.302 0.537s0.206 0.147 0.366 0.161c0.059 0.008 0.13 0.011 0.214 0.011h0.253c0 0.035-0.005 0.083-0.013 0.14 0 0.057-0.008 0.104-0.025 0.139-0.025 0.072-0.054 0.115-0.088 0.129-0.022 0.011-0.048 0.019-0.075 0.022l-0.001 0h-2.256c-0.084 0-0.126-0.036-0.126-0.108 0.002-0.043 0.006-0.083 0.014-0.123l-0.001 0.005c0.008-0.057 0.030-0.108 0.063-0.151l-0.001 0.001c0.202-0.022 0.357-0.061 0.467-0.118 0.098-0.049 0.164-0.148 0.164-0.263 0-0.006-0-0.012-0.001-0.018l0 0.001c0-0.086-0.034-0.207-0.101-0.365l-0.591-1.321h-3.767l-0.643 1.321c-0.093 0.2-0.138 0.347-0.138 0.44 0 0.086 0.025 0.147 0.076 0.183 0.059 0.035 0.134 0.061 0.227 0.076 0.059 0.007 0.138 0.010 0.239 0.010h0.29c0 0.035-0.004 0.083-0.013 0.14 0 0.057-0.008 0.104-0.025 0.139-0.025 0.072-0.055 0.115-0.088 0.129-0.022 0.011-0.048 0.019-0.075 0.022l-0.001 0h-2.015zM59.142 4.905h3.327l-1.538-3.435c-0.042-0.086-0.084-0.086-0.126 0l-1.663 3.435zM65.841 7.846c-0.084 0-0.126-0.036-0.126-0.108 0-0.029 0.004-0.067 0.013-0.118 0.008-0.057 0.031-0.108 0.064-0.151l-0.001 0.001c0.294-0.029 0.487-0.090 0.579-0.183 0.101-0.093 0.16-0.229 0.177-0.408 0.008-0.093 0.017-0.24 0.025-0.44s0.012-0.43 0.012-0.686c0.008-0.265 0.013-0.526 0.013-0.783 0-0.244-0.004-0.462-0.013-0.655 0-0.2-0.004-0.347-0.013-0.44-0.008-0.143-0.042-0.247-0.101-0.312-0.051-0.064-0.147-0.103-0.29-0.118l-0.466-0.042c-0.059 0-0.088-0.029-0.088-0.086 0.001-0.114 0.049-0.217 0.126-0.29l0-0c0.135-0.036 0.302-0.065 0.504-0.086s0.378-0.033 0.53-0.033c0.184 0 0.314 0.040 0.39 0.118 0.076 0.072 0.114 0.194 0.114 0.366v0.236c0.244-0.264 0.546-0.476 0.907-0.633 0.331-0.156 0.719-0.247 1.128-0.247 0.002 0 0.004 0 0.005 0h-0c0.537 0 0.966 0.136 1.285 0.408 0.328 0.271 0.491 0.697 0.491 1.277v2.104c0.008 0.215 0.017 0.408 0.025 0.579 0.008 0.1 0.034 0.168 0.076 0.204 0.042 0.029 0.088 0.051 0.138 0.065 0.192 0.020 0.415 0.031 0.641 0.032h0.001c0 0.035-0.004 0.089-0.013 0.161-0.005 0.059-0.018 0.114-0.038 0.165l0.001-0.004c-0.025 0.072-0.072 0.108-0.139 0.108h-2.154c-0.084 0-0.126-0.036-0.126-0.108 0.002-0.043 0.006-0.083 0.014-0.123l-0.001 0.005c0.008-0.057 0.030-0.108 0.063-0.151l-0.001 0.001c0.286-0.029 0.483-0.090 0.592-0.183s0.177-0.229 0.202-0.408c0.017-0.086 0.025-0.254 0.025-0.505 0.008-0.25 0.012-0.522 0.012-0.815 0-0.221-0.003-0.43-0.012-0.622 0-0.194-0.004-0.34-0.013-0.44-0.025-0.401-0.16-0.698-0.403-0.891s-0.55-0.294-0.92-0.301c-0.012-0-0.026-0-0.040-0-0.404 0-0.778 0.125-1.087 0.337l0.006-0.004c-0.337 0.229-0.563 0.519-0.68 0.869-0.008 0.186-0.013 0.376-0.013 0.569v1.406c0.008 0.243 0.017 0.458 0.025 0.644 0.008 0.15 0.080 0.236 0.214 0.258 0.059 0.007 0.164 0.014 0.315 0.021s0.261 0.011 0.328 0.011c0 0.035-0.005 0.083-0.013 0.14 0 0.057-0.008 0.104-0.025 0.139-0.025 0.072-0.055 0.115-0.088 0.129-0.022 0.011-0.048 0.019-0.075 0.022l-0.001 0h-2.103zM73.026 7.846c-0.084 0-0.126-0.036-0.126-0.108 0.001-0.043 0.006-0.083 0.013-0.123l-0.001 0.005c0.008-0.057 0.031-0.108 0.064-0.151l-0.001 0.001c0.294-0.029 0.487-0.090 0.579-0.183 0.101-0.093 0.16-0.229 0.177-0.408 0.008-0.093 0.017-0.24 0.025-0.44s0.012-0.43 0.012-0.686c0.008-0.265 0.013-0.526 0.013-0.783 0-0.244-0.004-0.462-0.013-0.655 0-0.019 0-0.041 0-0.063 0-0.133-0.005-0.264-0.014-0.395l0.001 0.018c-0.008-0.143-0.042-0.247-0.101-0.312-0.051-0.064-0.147-0.103-0.289-0.118l-0.467-0.042c-0.059 0-0.088-0.029-0.088-0.086 0.001-0.114 0.049-0.217 0.126-0.29l0-0c0.135-0.036 0.302-0.065 0.504-0.086s0.379-0.033 0.53-0.033c0.184 0 0.315 0.040 0.39 0.118 0.076 0.072 0.114 0.194 0.114 0.366v0.236c0.244-0.264 0.546-0.476 0.907-0.633 0.331-0.156 0.719-0.247 1.128-0.247 0.002 0 0.004 0 0.005 0h-0c0.537 0 0.966 0.136 1.285 0.408 0.328 0.271 0.491 0.697 0.491 1.277v2.104c0.008 0.215 0.017 0.408 0.025 0.579 0.008 0.1 0.034 0.168 0.076 0.204 0.042 0.029 0.088 0.051 0.139 0.065 0.192 0.020 0.415 0.031 0.641 0.032h0.001c0 0.035-0.005 0.089-0.013 0.161-0.005 0.059-0.018 0.114-0.039 0.165l0.001-0.004c-0.025 0.072-0.072 0.108-0.139 0.108h-2.154c-0.084 0-0.126-0.036-0.126-0.108 0-0.029 0.004-0.067 0.013-0.118 0.008-0.057 0.030-0.108 0.063-0.151l-0.001 0.001c0.286-0.029 0.483-0.090 0.592-0.183s0.177-0.229 0.202-0.408c0.017-0.086 0.025-0.254 0.025-0.505 0.008-0.25 0.013-0.522 0.013-0.815 0-0.221-0.004-0.43-0.013-0.622 0-0.194-0.004-0.34-0.013-0.44-0.025-0.401-0.16-0.698-0.403-0.891s-0.55-0.294-0.92-0.301c-0.012-0-0.026-0-0.040-0-0.404 0-0.778 0.125-1.088 0.337l0.007-0.004c-0.337 0.229-0.563 0.519-0.68 0.869-0.008 0.186-0.013 0.376-0.013 0.569v1.406c0.008 0.243 0.017 0.458 0.025 0.644 0.008 0.15 0.080 0.236 0.214 0.258 0.059 0.007 0.164 0.014 0.315 0.021s0.261 0.011 0.328 0.011c0 0.035-0.005 0.083-0.013 0.14 0 0.057-0.008 0.104-0.025 0.139-0.025 0.072-0.055 0.115-0.088 0.129-0.022 0.011-0.048 0.019-0.075 0.022l-0.001 0h-2.103zM84.482 7.953c-0.005 0-0.012 0-0.018 0-0.155 0-0.293-0.071-0.385-0.182l-0.001-0.001c-0.101-0.133-0.166-0.3-0.177-0.48l-0-0.002c-0.293 0.236-0.636 0.423-1.010 0.541l-0.022 0.006c-0.331 0.105-0.712 0.168-1.106 0.172h-0.002c-0.462 0-0.862-0.122-1.197-0.366-0.337-0.25-0.504-0.601-0.504-1.051 0-0.394 0.131-0.705 0.391-0.935 0.26-0.236 0.672-0.411 1.235-0.526 0.571-0.121 1.31-0.204 2.217-0.247v-0.236c0-0.15-0.008-0.312-0.025-0.483-0.018-0.181-0.076-0.345-0.166-0.487l0.003 0.005c-0.084-0.15-0.227-0.272-0.428-0.365-0.202-0.101-0.483-0.151-0.845-0.151-0.411 0-0.718 0.079-0.92 0.236-0.201 0.152-0.319 0.379-0.352 0.687-0.041 0-0.080 0.004-0.118 0.012l0.004-0.001h-0.126c-0.002 0-0.005 0-0.008 0-0.149 0-0.294-0.020-0.431-0.057l0.012 0.003c-0.135-0.035-0.202-0.11-0.202-0.225s0.076-0.232 0.227-0.354c0.152-0.13 0.352-0.248 0.605-0.355s0.529-0.194 0.831-0.258c0.268-0.067 0.576-0.107 0.894-0.108h0.001c0.302 0 0.588 0.046 0.857 0.14 0.278 0.086 0.499 0.236 0.668 0.451s0.243 0.512 0.227 0.891c-0.008 0.2-0.017 0.455-0.025 0.762v1.524c0.008 0.193 0.013 0.357 0.013 0.494 0.008 0.193 0.034 0.307 0.076 0.343 0.051 0.029 0.122 0.040 0.214 0.033h0.013l0.63-0.033c0.051 0 0.076 0.025 0.076 0.076-0.005 0.059-0.018 0.113-0.039 0.164l0.001-0.004c-0.012 0.064-0.044 0.12-0.088 0.162l-0 0c-0.050 0.021-0.142 0.051-0.277 0.086-0.027 0.010-0.162 0.040-0.299 0.068l-0.104 0.018c-0.135 0.021-0.24 0.032-0.315 0.032zM83.89 6.88l0.012-1.481c-0.28-0.025-0.609-0.041-0.941-0.042h-0.003c-0.555 0-0.983 0.045-1.285 0.139s-0.512 0.225-0.63 0.397c-0.118 0.165-0.177 0.362-0.177 0.59 0 0.337 0.126 0.584 0.379 0.741 0.252 0.15 0.55 0.225 0.894 0.225 0.303 0 0.609-0.051 0.92-0.15 0.32-0.101 0.596-0.24 0.832-0.419zM12.552 24.707c-1.924 0-3.696-0.364-5.314-1.092-4.764-0.026-7.145-1.848-7.145-5.464 0-0.755 0.137-1.588 0.413-2.498-0.315-1.122-0.499-2.412-0.505-3.743v-0.004c0-2.185 1.314-4.163 3.94-5.933-0.152-2.653 0.977-4.476 3.39-5.464 0.706-0.32 1.53-0.507 2.399-0.507 0.010 0 0.021 0 0.031 0h-0.002c2.413 0 4.719 1.118 6.918 3.356 2.047 0.339 3.726 1.132 5.039 2.381 1.375 1.301 2.062 2.863 2.062 4.684 0 2.212-0.779 4.346-2.336 6.401-0.398 2.341-1.436 4.241-3.116 5.698-1.648 1.457-3.573 2.186-5.772 2.186zM4.444 5.7c2.779-1.718 6.093-2.576 9.941-2.576 0.397 0 0.809 0.026 1.237 0.078-2.077-1.873-4.123-2.81-6.14-2.81-0.733 0-1.39 0.131-1.969 0.391-2.138 0.884-3.162 2.524-3.070 4.918zM6.734 22.326c1.344 0 2.704-0.195 4.077-0.585 1.567-0.485 2.917-1.068 4.189-1.774l-0.112 0.057c2.688-1.482 4.704-3.304 6.047-5.464-0.036-0.586-0.085-1.097-0.15-1.603l0.012 0.12c-0.061-0.495-0.168-1.002-0.32-1.523-0.672-2.992-2.093-5.581-4.262-7.767-0.519-0.104-1.129-0.156-1.832-0.156-4.032 0-7.315 1.066-9.85 3.2 0.061 0.364 0.152 0.716 0.275 1.054 0.153 0.312 0.306 0.611 0.458 0.898 2.719-2.238 5.483-3.357 8.292-3.357 0.366 0 0.549 0.092 0.549 0.274 0 0.156-0.198 0.234-0.595 0.234-2.412 0-4.993 1.209-7.742 3.63 1.343 1.613 2.977 2.42 4.902 2.42 1.588 0 2.733-0.729 3.436-2.186 0-0.078 0.045-0.118 0.137-0.118 0.214 0 0.29 0.078 0.229 0.235-0.764 1.587-2.016 2.381-3.756 2.381-2.047 0-3.803-0.807-5.269-2.421-1.924 1.796-3.253 3.67-3.985 5.621 0.611 2.862 2.031 5.112 4.26 6.752 0.153 0.025 0.321 0.051 0.504 0.077h0.504zM21.532 13.35c0.433-1.015 0.685-2.195 0.686-3.434v-0.001c0-2.966-1.619-4.918-4.855-5.854 0.914 1.002 1.72 2.129 2.383 3.345l0.045 0.090c0.669 1.172 1.166 2.536 1.41 3.987l0.010 0.073 0.183 0.897c0.031 0.156 0.046 0.312 0.046 0.468 0.030 0.156 0.061 0.299 0.091 0.43zM1.237 13.701c0.763-1.665 1.97-3.2 3.619-4.605-0.306-0.494-0.55-1.132-0.733-1.913-0.757 0.688-1.398 1.486-1.901 2.372l-0.025 0.047c-0.702 1.223-1.023 2.589-0.962 4.098zM4.764 22.131c-1.619-1.275-2.871-2.914-3.756-4.918-0.029 0.101-0.046 0.217-0.046 0.337 0 0.005 0 0.011 0 0.016v-0.001 0.351c0 2.212 1.268 3.616 3.803 4.215zM12.599 24.394c1.985 0 3.68-0.624 5.084-1.873 1.405-1.223 2.367-2.784 2.886-4.684-1.558 1.639-3.436 2.979-5.634 4.020s-4.46 1.614-6.78 1.718c1.313 0.546 2.794 0.819 4.444 0.819zM23.464 23.419c-1.161 0-1.741-0.208-1.741-0.625 0-0.494 0.488-0.767 1.465-0.819 1.283-0.051 2.872-0.182 4.764-0.39 0.244-0.339 0.367-0.638 0.367-0.898 0-0.416-0.351-0.884-1.054-1.405-1.679-1.249-2.519-2.446-2.519-3.591 0-0.39 0.107-0.755 0.32-1.092 1.038-1.509 2.322-2.264 3.849-2.264 0.641 0 1.191 0.143 1.649 0.43s0.687 0.598 0.687 0.937c-0.002 0.116-0.036 0.223-0.093 0.314l0.002-0.003c-0.030 0.078-0.076 0.118-0.137 0.118s-0.137-0.078-0.229-0.234c-0.061-0.443-0.351-0.664-0.871-0.664-0.763 0-1.557 0.351-2.382 1.054-0.794 0.729-1.191 1.418-1.191 2.068 0 0.573 0.443 1.314 1.328 2.224 0.886 0.884 1.329 1.549 1.329 1.991 0 0.208-0.077 0.468-0.229 0.781 0.624-0.252 1.107-0.475 1.578-0.716l-0.113 0.052c1.213-0.559 1.919-0.911 2.62-1.272l-0.466 0.219c0.091 0.052-0.26 0.377-1.054 0.975l-2.933 1.483c-0.244 0.365-0.885 0.676-1.924 0.937-0.947 0.259-1.955 0.39-3.024 0.39zM35.203 22.56c-0.397 0-0.733-0.039-1.008-0.117-0.275-0.051-0.488-0.117-0.641-0.195-0.366-0.234-0.55-0.677-0.55-1.327 0-0.208 0.015-0.442 0.045-0.702 0.061-0.261 0.122-0.559 0.184-0.898 0.122-0.624 0.519-1.743 1.191-3.356 0.153-0.339 0.275-0.638 0.366-0.898 0.122-0.261 0.214-0.482 0.275-0.664l0.229-0.507c-0.672 0-1.802 0.117-3.39 0.351h-0.046c-0.122 0-0.183-0.131-0.183-0.391 0-0.312 0.137-0.507 0.413-0.585 0.213-0.078 1.39-0.182 3.527-0.312 0.244-0.677 0.534-1.457 0.87-2.342 0.366-0.91 0.779-1.912 1.237-3.005 0.030-0.157 0.152-0.234 0.366-0.234 0.244 0 0.519 0.182 0.825 0.546 0.306 0.339 0.458 0.664 0.458 0.976 0.001 0.009 0.001 0.019 0.001 0.030 0 0.074-0.017 0.145-0.048 0.207l0.001-0.003-2.245 3.824c0.398-0.025 0.749-0.039 1.054-0.039h0.962c1.742 0 2.628 0.117 2.657 0.351 0 0.104-0.733 0.208-2.198 0.312-0.398 0.027-0.749 0.053-1.054 0.078-0.305 0-0.58 0.026-0.825 0.078l-0.87 0.118c-0.337 0-0.809 1.079-1.42 3.239-0.55 1.925-0.825 3.070-0.825 3.435 0 0.78 0.337 1.171 1.008 1.171 0.52 0 1.542-0.351 3.070-1.054l0.687-0.391c0.275-0.182 0.611-0.403 1.007-0.664 0.611-0.442 0.993-0.663 1.145-0.663 0.061 0 0.107 0.051 0.137 0.156 0 0.364-0.794 1.015-2.382 1.951-1.65 1.015-2.993 1.522-4.032 1.522z"></path>
<path fill="#8e7f7f" style="fill: var(--color1, #8e7f7f)" d="M41.937 22.521c-0.977-0.13-1.466-0.716-1.466-1.756 0-1.588 0.855-3.344 2.565-5.269 1.771-2.030 3.605-3.045 5.497-3.045 0.642 0 1.221 0.13 1.741 0.39 0.55 0.234 0.825 0.611 0.825 1.132 0 0.598-0.291 0.937-0.871 1.015 0.184-0.26 0.275-0.521 0.275-0.781 0-0.573-0.382-0.859-1.145-0.859-0.733 0-1.527 0.312-2.382 0.937-2.107 1.535-3.65 3.317-4.627 5.347-0.306 0.624-0.458 1.145-0.458 1.561 0 0.339 0.137 0.508 0.413 0.508 0.305 0 0.84-0.299 1.604-0.898 0.519-0.416 1.649-1.679 3.39-3.786 0.458-0.547 0.825-0.819 1.099-0.819 0.244 0 0.366 0.547 0.366 1.639v2.186c0.275 1.145 0.749 1.718 1.421 1.718 0.366 0 0.809-0.104 1.328-0.312 0.55-0.235 1.084-0.599 1.604-1.093l0.825-0.741c0.092-0.026 0.199 0.025 0.32 0.156-0.121 0.286-0.656 0.767-1.603 1.444-1.191 0.859-2.291 1.289-3.298 1.289-0.275 0-0.55-0.040-0.825-0.118-0.793-0.233-1.313-0.962-1.557-2.186-0.064-0.365-0.127-0.655-0.202-0.94l0.018 0.082c-0.026-0.173-0.042-0.376-0.045-0.582l-0-0.004v-0.195c-0.184 0.312-0.718 0.963-1.604 1.951-1.314 1.457-2.382 2.134-3.206 2.030z"></path>
<path fill="#8e7f7f" style="fill: var(--color1, #8e7f7f)" d="M52.773 32.005c-0.091 0-0.198-0.013-0.32-0.039-0.132-0.004-0.258-0.018-0.381-0.042l0.015 0.002c-0.642-0.077-1.145-0.43-1.512-1.053-0.397-0.599-0.595-1.289-0.595-2.069 0-0.339 0.030-0.664 0.092-0.976 0.702-2.731 2.489-7.519 5.36-14.362-0.398-0.182-0.581-0.312-0.55-0.391 0.152-0.468 0.504-0.767 1.054-0.897 0.328-0.632 0.582-1.365 0.725-2.137l0.008-0.049v-0.039c0-0.26-0.183-0.598-0.549-1.015l-0.137-0.117c0-0.182 0.198-0.221 0.595-0.117 0.611 0.157 1.069 0.377 1.374 0.664 0.306 0.26 0.428 0.494 0.367 0.702l-0.413 1.249-0.458 1.249c1.833 0.989 2.917 2.42 3.253 4.294 0 0.13 0.061 0.195 0.184 0.195 0.183 0 0.534-0.143 1.053-0.43 0.856-0.494 1.238-0.741 1.145-0.741 0.153 0 0.168 0.091 0.046 0.273-0.092 0.157-0.244 0.286-0.458 0.391l-1.924 1.015c-0.153 2.757-1.374 4.384-3.665 4.878-0.122 0.026-0.244 0.040-0.366 0.040-0.122 0.025-0.244 0.039-0.366 0.039-0.672 0-1.008-0.299-1.008-0.898 0-0.65 0.366-1.353 1.099-2.107l0.733-0.547c0.428-0.312 1.085-0.781 1.971-1.405 0-0.573-0.244-1.289-0.733-2.148-0.52-0.91-1.039-1.457-1.558-1.638-0.092-0.052-0.901 1.925-2.428 5.932-1.619 4.215-2.535 7.038-2.749 8.469-0.183 1.145-0.275 1.769-0.275 1.874 0 0.937 0.397 1.47 1.191 1.6 0.306 0.025 0.458 0.104 0.458 0.234 0 0.078-0.092 0.117-0.275 0.117zM56.896 21.702c0.856 0 1.512-0.559 1.971-1.679 0.213-0.52 0.32-1.002 0.32-1.444v-0.233c-0-0.085-0.017-0.165-0.047-0.239l0.002 0.004c-1.192 0.911-2 1.652-2.428 2.225-0.244 0.364-0.366 0.664-0.366 0.898 0 0.312 0.183 0.468 0.549 0.468zM66.040 22.834c-0.916 0-1.68-0.234-2.291-0.702-0.611-0.494-0.916-1.327-0.916-2.498 0-0.312 0.030-0.651 0.092-1.015 0.275-1.327 0.916-2.589 1.924-3.786 1.252-1.457 2.55-2.186 3.894-2.186 0.702 0 1.359 0.168 1.97 0.507 0.611 0.312 0.916 0.781 0.916 1.405 0 0.702-0.336 1.432-1.008 2.186h0.916c0.152 0 0.244 0.013 0.275 0.039 0 0.156-0.564 0.325-1.695 0.507-0.672 0.651-1.176 0.976-1.512 0.976-0.061 0-0.092-0.026-0.092-0.078 0 0.026 0.229-0.234 0.687-0.781-0.397 0-0.931 0.026-1.604 0.078-0.641 0.025-1.42 0.091-2.336 0.195-0.336 0.781-0.504 1.509-0.504 2.186 0 0.859 0.275 1.482 0.825 1.873 0.336 0.261 0.748 0.391 1.237 0.391h0.275c0.092 0 0.183-0.013 0.275-0.040 1.955-0.286 3.849-1.249 5.681-2.888 0.152-0.182 0.275-0.208 0.366-0.078 0.031 0.026 0.046 0.066 0.046 0.118 0 0.104-0.093 0.233-0.275 0.39-0.641 0.702-1.649 1.392-3.024 2.068-1.527 0.755-2.901 1.132-4.123 1.132zM65.719 16.862c0.448-0.025 0.973-0.040 1.501-0.040 0.052 0 0.104 0 0.156 0l-0.008-0 2.291-0.039c0.336-0.573 0.55-1.027 0.642-1.366s0.137-0.611 0.137-0.819c0-0.547-0.244-0.82-0.733-0.82-0.611 0-1.284 0.312-2.016 0.937-0.428 0.364-0.809 0.729-1.145 1.092-0.311 0.308-0.584 0.654-0.811 1.031l-0.013 0.024zM81.827 23.38c-1.588 0-2.383-0.872-2.383-2.615 0-0.937 0.229-2.108 0.687-3.513l0.733-2.225-3.206 3.123c-0.764 0.755-1.359 1.379-1.787 1.873s-0.687 0.846-0.778 1.054c-0.367 0.833-0.931 1.249-1.695 1.249-0.275 0-0.366-0.117-0.275-0.351l0.733-2.42c0.244-0.755 0.413-1.444 0.504-2.068 0.093-0.65 0.137-1.223 0.137-1.717 0-0.011 0-0.024 0-0.036 0-0.18-0.017-0.357-0.048-0.528l0.003 0.018c-0.029-0.141-0.045-0.303-0.045-0.468 0-0 0-0 0-0v0c0-0.339 0.198-0.65 0.595-0.937s0.794-0.43 1.191-0.43c0.458 0 0.642 0.222 0.55 0.664-0.131 0.645-0.242 1.104-0.364 1.559l0.044-0.193c-0.093 0.442-0.184 0.884-0.275 1.327l-0.733 2.848c1.832-1.431 3.771-3.512 5.817-6.244 0.123-0.182 0.413-0.274 0.871-0.274 0.733 0 1.115 0.131 1.145 0.391 0.061 0.234-0.061 0.702-0.366 1.405-0.458 1.145-0.779 2.042-0.963 2.693-0.458 1.639-0.687 2.939-0.687 3.903 0 0.937 0.244 1.405 0.733 1.405 0.551 0 1.177-0.26 1.879-0.781 0.642-0.468 0.947-0.702 0.916-0.702 0.092 0 0.107 0.104 0.045 0.312-0.030 0.209-0.183 0.43-0.458 0.665-0.793 0.676-1.634 1.015-2.519 1.015z"></path>
<path fill="#8e7f7f" style="fill: var(--color1, #8e7f7f)" d="M85.443 22.482c-0.122 0-0.366-0.157-0.733-0.468l-0.642-0.508c0-0.807 0.259-2.355 0.779-4.644 0.305-1.249 0.611-2.447 0.916-3.591 0.336-1.145 0.687-2.238 1.054-3.279 1.313-3.695 3.237-6.114 5.772-7.26 0.671-0.312 1.343-0.467 2.015-0.467 0.977 0 1.771 0.377 2.382 1.132l0.184 0.234c0.030 0.13 0.030 0.208 0 0.234-0.061 0.052-0.137 0.052-0.229 0-0.003 0-0.007 0-0.011 0-0.083 0-0.159-0.030-0.218-0.079l0.001 0c-0.672-0.494-1.512-0.728-2.52-0.702-1.954 0.025-3.802 2.055-5.543 6.089-1.315 3.025-2.311 6.538-2.817 10.207l-0.024 0.212c0.152-0.494 0.351-0.975 0.595-1.444s0.52-0.937 0.825-1.405c-0.183-0.391-0.275-0.716-0.275-0.976 0-0.312 0.077-0.468 0.229-0.468s0.321 0.221 0.504 0.664v0.039c0.428-0.598 0.856-1.145 1.283-1.639 0.435-0.497 0.9-0.944 1.4-1.35l0.021-0.017c1.435-1.197 2.977-1.796 4.626-1.796 0.856 0 1.421 0.208 1.695 0.624 0.092 0.131 0.077 0.209-0.045 0.234-0.122 0.078-0.229 0.052-0.321-0.077s-0.275-0.195-0.55-0.195c-1.008 0-2.382 0.664-4.123 1.991-1.344 1.014-2.49 2.068-3.436 3.161 0.702 1.093 1.741 2.173 3.115 3.24 1.405 1.118 2.657 1.782 3.756 1.99 0.061 0 0.092 0.013 0.092 0.039 0 0.183-0.58 0.274-1.741 0.274-0.428 0-0.748-0.040-0.962-0.118l-0.734-0.273c-0.151-0.040-0.273-0.080-0.393-0.126l0.026 0.009c-0.397-0.182-0.825-0.533-1.283-1.054-0.9-0.974-1.704-2.061-2.381-3.23l-0.047-0.087c-1.099 1.353-1.786 2.81-2.061 4.371v0.157c0 0.234-0.061 0.351-0.184 0.351z"></path>
<path fill="#8e7f7f" style="fill: var(--color1, #8e7f7f)" d="M97.31 22.834c-0.764 0-1.39-0.299-1.878-0.898s-0.734-1.366-0.734-2.303c0-0.755 0.153-1.523 0.458-2.303 1.13-2.914 2.52-4.437 4.169-4.566 0.184-0.183 0.443-0.274 0.779-0.274 0.611 0 1.206 0.234 1.786 0.702 0.611 0.468 0.947 0.963 1.008 1.483 0.397 0.417 0.977 0.625 1.741 0.625 0.244 0 0.611-0.026 1.099-0.078 0.32-0.041 0.701-0.069 1.087-0.078l0.013-0c0.122 0 0.152 0.066 0.092 0.195-0.031 0.104-0.184 0.222-0.458 0.351-0.55 0.234-1.237 0.377-2.062 0.43h-0.55c-0.519 0-0.9-0.052-1.145-0.156 0.153 0.989-0.397 2.406-1.649 4.253-1.129 1.743-2.382 2.616-3.756 2.616zM97.584 22.053c0.794 0 1.649-0.611 2.565-1.834 0.244-0.339 0.473-0.716 0.687-1.132 0.244-0.416 0.443-0.884 0.595-1.405 0.306-0.884 0.428-1.523 0.367-1.913-1.13-0.156-1.787-0.716-1.97-1.679-0.825 0.208-1.619 1.106-2.383 2.693-0.702 1.482-1.054 2.68-1.054 3.59 0 1.119 0.397 1.679 1.191 1.679z"></path>
</symbol>
<symbol id="icon-menu" viewBox="0 0 32 32">
<path d="M2 6h28v6h-28zM2 14h28v6h-28zM2 22h28v6h-28z"></path>
</symbol>
</defs>
</svg>
