<svg aria-hidden="true" style="position: absolute; width: 0; height: 0; overflow: hidden;" version="1.1" xmlns="http://www.w3.org/2000/svg" xmlns:xlink="http://www.w3.org/1999/xlink">
<defs>
<symbol id="icon-instagram" viewBox="0 0 32 32">
<path fill="#8e7f7f" style="fill: var(--color1, #8e7f7f)" d="M31.904 9.584c-0.122-5.691-3.794-9.367-9.487-9.488-1.353-0.127-11.478-0.129-12.832 0-5.691 0.122-9.367 3.795-9.488 9.488-0.127 1.352-0.129 11.48 0 12.833 0.112 5.677 3.81 9.378 9.488 9.488 1.663 0.076 2.216 0.094 6.416 0.094s4.753-0.018 6.416-0.094c1.552-0.070 2.76-0.303 3.92-0.753 3.637-1.397 5.487-4.838 5.568-8.735 0.127-1.351 0.13-11.481 0-12.833zM30.925 22.373c-0.098 5.179-3.372 8.458-8.554 8.554-1.322 0.126-11.42 0.128-12.743 0-5.179-0.098-8.457-3.372-8.554-8.554-0.075-1.646-0.093-2.194-0.093-6.372 0.118-6.643-0.773-11.671 5.037-14.239 1.055-0.41 2.168-0.622 3.609-0.688 1.646-0.075 2.194-0.092 6.372-0.092s4.726 0.017 6.372 0.093c1.441 0.066 2.554 0.278 3.61 0.688 5.803 2.557 4.922 7.603 5.037 14.238-0 4.179-0.018 4.727-0.093 6.372z"></path>
<path fill="#8e7f7f" style="fill: var(--color1, #8e7f7f)" d="M24.283 9.922c1.207 0 2.19-0.986 2.19-2.198-0.103-2.909-4.277-2.908-4.379 0 0 1.212 0.983 2.198 2.189 2.198zM24.283 6.443c1.688 0.054 1.688 2.51 0 2.564-1.688-0.054-1.687-2.511 0-2.564z"></path>
<path fill="#8e7f7f" style="fill: var(--color1, #8e7f7f)" d="M28.667 21.785c-0.279-0.011-0.499 0.197-0.511 0.467-0.189 3.936-1.942 5.708-5.89 5.89-1.261 0.122-11.227 0.123-12.488 0-5.662-0.153-6.115-4.096-5.911-8.942 0.009-1.353 0.033-4.826 0.022-6.631-0.003-0.633-0.971-0.651-0.98 0 0.017 1.811-0.011 5.266-0.022 6.621-0.064 2.030-0.015 4.834 0.589 6.141 2.083 4.752 6.604 3.698 12.546 3.88 7.275-0.082 12.578 0.838 13.113-6.915 0.011-0.27-0.198-0.499-0.468-0.511z"></path>
<path fill="#8e7f7f" style="fill: var(--color1, #8e7f7f)" d="M28.5 6.683c-2.021-4.713-6.663-3.719-12.546-3.88-7.158-0.003-12.742-0.651-13.113 6.915-0.012 0.645 0.934 0.688 0.979 0.044 0.189-3.936 1.942-5.708 5.89-5.89 1.27-0.123 11.217-0.124 12.489 0 3.947 0.178 5.701 1.958 5.89 5.89 0.089 1.039 0.139 6.451-0 9.235-0.012 0.635 0.945 0.682 0.979 0.029l0.091-3.019c0-4.148-0.016-4.642-0.091-6.289-0.072-1.585-0.341-2.455-0.567-3.035z"></path>
<path fill="#8e7f7f" style="fill: var(--color1, #8e7f7f)" d="M7.579 16c0 4.643 3.787 8.421 8.443 8.421 11.201-0.463 11.197-16.381 0-16.842-4.655 0-8.443 3.778-8.443 8.421zM23.486 16c0 4.105-3.349 7.445-7.464 7.445-9.903-0.409-9.9-14.483 0-14.891 4.116 0 7.464 3.34 7.464 7.446z"></path>
<path fill="#8e7f7f" style="fill: var(--color1, #8e7f7f)" d="M16.015 21.558c7.392-0.306 7.39-10.812 0-11.116-3.073 0-5.572 2.493-5.572 5.558s2.5 5.558 5.572 5.558zM16.015 11.404c2.541 0 4.608 2.062 4.608 4.596s-2.067 4.596-4.608 4.596c-6.113-0.253-6.111-8.94 0-9.192z"></path>
</symbol>
<symbol id="icon-telegram" viewBox="0 0 32 32">
<path fill="#8e7f7f" style="fill: var(--color1, #8e7f7f)" d="M31.198 5.897c-0.268-0.051-0.518 0.168-0.561 0.489l-2.955 22.306c-0.002 0.013-0.003 0.027-0.004 0.040-0.001 0.018-0.149 1.775-1.131 2.053-1.072 0.302-3.12-1.193-3.559-1.614-0.078-0.070-0.331-0.27-0.897-0.714-1.646-1.292-5.5-4.319-7.087-5.933-0.617-0.598-0.683-1.416 0.091-2.169 2.806-3.091 6.236-7.017 8.341-9.547 0.416-0.5 1.371-1.976 0.807-2.796-0.479-0.696-1.491-0.313-3.488 1.32l-11.181 9.054c-0.522 0.442 0.002 1.398 0.547 0.976 0.117 0.199 16.187-13.865 12.622-9.386-2.097 2.52-5.514 6.432-8.302 9.503-1.168 1.19-1.214 2.765-0.073 3.942 1.636 1.663 5.385 4.607 7.186 6.022 0.422 0.332 0.786 0.617 0.833 0.659 0.363 0.349 2.319 1.897 3.86 1.897 1.868 0.063 2.395-2.595 2.403-3.139l2.953-22.289c0.043-0.321-0.139-0.623-0.406-0.674z"></path>
<path fill="#8e7f7f" style="fill: var(--color1, #8e7f7f)" d="M31.309 0.437c-0.953-0.859-2.44-0.201-2.615-0.119-4.146 2.064-21.598 10.751-26.477 13.147-2.209 0.936-2.921 2.745-1.43 4.002 0.032 0.024 0.065 0.043 0.101 0.058 0.028 0.011 2.812 1.157 5.172 2.008 0.622 0.207 0.894-0.89 0.282-1.127-2.142-0.772-4.638-1.79-5.071-1.968-0.708-0.648-0.003-1.215 1.31-1.88 4.939-2.427 22.267-11.052 26.475-13.146 0.813-0.333 2.162-0.601 1.952 1.305-0.024 0.324 0.176 0.609 0.445 0.638 0.265 0.029 0.507-0.211 0.531-0.534 0.081-1.104-0.146-1.905-0.675-2.382z"></path>
</symbol>
<symbol id="icon-tiktok" viewBox="0 0 27 32">
<path fill="#8e7f7f" style="fill: var(--color1, #8e7f7f)" d="M27.052 7.897c-0.094-0.093-0.218-0.14-0.349-0.132-1.818 0.125-3.277-0.268-4.455-1.202-1.594-1.264-2.356-3.090-2.547-6.105-0.017-0.257-0.22-0.457-0.466-0.457h-4.816c-0.258 0-0.467 0.22-0.467 0.49 0.002 6.589 0.005 12.367-0.012 19.302 0.009 0.641 0.92 0.651 0.934 0.003 0.017-6.793 0.012-12.382 0.012-18.814h3.917c0.191 4.186 2.73 7.969 7.464 7.785v4.336c-1.996-0.144-3.906-0.242-5.731-1.25-0.481-0.16-1.503-0.998-1.686-0.059-0.051 0.429 0.060 7.414 0.039 9.638-0.253 12.028-16.399 13.195-17.917 0.934-0.453-4.864 3.107-9.468 7.775-10.053 0.612-0.089 0.496-1.041-0.111-0.974-5.16 0.647-9.095 5.74-8.593 11.123 1.675 13.509 19.499 12.226 19.779-1.041 0.021-2.438-0.068-7.117-0.051-8.851 0.888 0.412 1.757 0.858 2.682 1.068 1.406 0.32 2.821 0.342 4.232 0.492 0.267 0.034 0.519-0.206 0.514-0.488v-5.385c0-0.136-0.054-0.266-0.148-0.359z"></path>
<path fill="#8e7f7f" style="fill: var(--color1, #8e7f7f)" d="M4.922 21.643c0.084 5.738 7.575 7.333 9.65 1.928 0.092-0.253-0.028-0.537-0.269-0.633s-0.511 0.029-0.603 0.283c-1.679 4.383-7.775 3.092-7.844-1.58-0.005-2.111 1.385-3.886 3.306-4.221 0.694-0.119 1.507-0.010 2.248-0.014 0.258 0 0.467-0.22 0.467-0.49v-5.107c-0.009-0.64-0.923-0.649-0.934 0v4.606c-3.16-0.464-6.008 1.705-6.020 5.228z"></path>
</symbol>
<symbol id="icon-youtube" viewBox="0 0 50 32">
<path fill="#8e7f7f" style="fill: var(--color1, #8e7f7f)" d="M49.355 5.294c-0.63-2.122-2.497-3.792-4.865-4.359-3.209-0.77-13.807-0.91-18.216-0.934-1.013 0.020-1.015 1.349-0.005 1.373 3.392 0.019 14.701 0.138 17.82 0.887 1.838 0.44 3.283 1.737 3.775 3.384 0.983 3.287 0.994 10.284 0.994 10.355s-0.012 7.070-0.995 10.356c-0.491 1.646-1.938 2.942-3.774 3.382-3.669 0.88-18.736 0.89-18.888 0.89s-15.219-0.010-18.888-0.891c-1.837-0.44-3.283-1.736-3.774-3.382-0.984-3.286-0.995-10.286-0.995-10.356s0.012-7.070 0.995-10.356c0.491-1.646 1.938-2.942 3.775-3.382 2.858-0.686 12.652-0.843 16.729-0.879 1.014-0.020 0.997-1.37-0.015-1.373-5.139 0.045-14.195 0.226-17.116 0.926-2.368 0.567-4.233 2.236-4.864 4.355-1.036 3.459-1.047 10.415-1.047 10.709s0.012 7.25 1.047 10.709c0.632 2.12 2.497 3.789 4.864 4.355 3.864 0.927 18.661 0.938 19.289 0.938s15.425-0.011 19.289-0.938c2.368-0.566 4.232-2.235 4.864-4.355 1.035-3.46 1.047-10.415 1.047-10.709s-0.012-7.243-1.045-10.704z"></path>
<path fill="#8e7f7f" style="fill: var(--color1, #8e7f7f)" d="M19.815 8.94c-0.238 0.123-0.384 0.349-0.384 0.593v12.929c-0.008 0.369 0.359 0.694 0.771 0.686 0.132 0 0.263-0.030 0.381-0.090l12.769-6.464c0.511-0.241 0.515-0.952 0.001-1.193l-12.77-6.465c-0.238-0.12-0.532-0.119-0.769 0.003zM20.975 10.714l10.438 5.284-10.438 5.284v-10.568z"></path>
</symbol>
</defs>
</svg>
