<svg width="40" height="40" viewBox="0 0 40 40" fill="none" xmlns="http://www.w3.org/2000/svg">
<path d="M38.9977 7.37164C38.6621 7.30738 38.3497 7.58165 38.2966 7.98243L34.6023 35.865C34.6002 35.8807 34.5986 35.8989 34.5973 35.9146C34.5956 35.9368 34.4112 38.1335 33.1834 38.4812C31.844 38.8587 29.2828 36.9904 28.735 36.4641C28.6369 36.3761 28.3207 36.1271 27.6137 35.572C25.5565 33.9567 20.7392 30.1736 18.7552 28.156C17.9835 27.4086 17.9009 26.3864 18.8693 25.4447C22.3763 21.5811 26.6638 16.6736 29.2958 13.5104C29.8154 12.8859 31.0099 11.0399 30.3047 10.0157C29.7055 9.1453 28.4411 9.62502 25.9443 11.6654L11.9683 22.9823C11.3153 23.5349 11.9704 24.7302 12.6525 24.2029C12.7982 24.4513 32.8866 6.87219 28.4302 12.4699C25.8091 15.6205 21.5371 20.5093 18.0521 24.3491C16.5915 25.8369 16.5346 27.8053 17.9607 29.2769C20.0053 31.3562 24.6916 35.0361 26.9434 36.8042C27.471 37.2186 27.9262 37.5759 27.9847 37.628C28.4386 38.0637 30.8832 39.9993 32.8103 39.9988C35.1451 40.0772 35.8036 36.7556 35.8137 36.075L39.5051 8.21419C39.559 7.81291 39.3312 7.43591 38.9977 7.37164Z" fill="#8E7F7F"/>
<path d="M39.1359 0.546613C37.9451 -0.5277 36.0858 0.295114 35.8668 0.397333C30.6837 2.97761 8.86904 13.8361 2.77096 16.8313C0.00970576 18.0018 -0.880817 20.2628 0.984018 21.8335C1.0236 21.8639 1.0657 21.8876 1.10991 21.9059C1.14444 21.92 4.62442 23.3521 7.57515 24.4158C8.35241 24.6749 8.69262 23.303 7.92715 23.0065C5.25011 22.0415 2.1297 20.7693 1.58865 20.5471C0.704019 19.7375 1.58486 19.028 3.22654 18.1966C9.40041 15.1634 31.0601 4.38185 36.3199 1.76363C37.3363 1.34716 39.0222 1.01217 38.7603 3.39509C38.7304 3.79991 38.9797 4.15667 39.3165 4.1926C39.6483 4.22852 39.9506 3.92946 39.9801 3.52463C40.0811 2.14518 39.7973 1.14323 39.1359 0.546613Z" fill="#8E7F7F"/>
</svg>
