<svg width="34" height="40" viewBox="0 0 34 40" fill="none" xmlns="http://www.w3.org/2000/svg">
<path d="M33.8152 9.87069C33.6978 9.7549 33.5431 9.69553 33.3785 9.70606C31.1064 9.86185 29.2822 9.37048 27.8102 8.20333C25.8182 6.62313 24.8655 4.34103 24.6259 0.571787C24.605 0.250525 24.3506 0 24.0433 0H18.0235C17.7014 0 17.4402 0.274525 17.4402 0.61305C17.443 8.84964 17.4466 16.0723 17.4258 24.7401C17.4374 25.5418 18.576 25.5536 18.5929 24.7435C18.6141 16.2526 18.6081 9.26648 18.6073 1.22652H23.5032C23.742 6.45934 26.916 11.1882 32.8328 10.9583V16.378C30.3379 16.1978 27.9509 16.0749 25.6692 14.8155C25.0678 14.6151 23.7905 13.5675 23.5621 14.7414C23.498 15.2774 23.6375 24.0087 23.611 26.7885C23.2945 41.8238 3.11174 43.2823 1.21506 27.9561C0.648544 21.8761 5.09897 16.1216 10.9336 15.3898C11.6989 15.2791 11.5538 14.0888 10.7954 14.1721C4.34575 14.9806 -0.573439 21.3477 0.0539789 28.0761C2.14738 44.9619 24.4283 43.3581 24.7781 26.775C24.8038 23.7275 24.6928 17.8782 24.7148 15.7115C25.8246 16.2269 26.9112 16.7839 28.0674 17.0462C29.8251 17.4467 31.5936 17.474 33.358 17.6606C33.6922 17.7035 34.0071 17.4029 33.9999 17.0504V10.3191C33.9999 10.149 33.933 9.9869 33.8152 9.87069Z" fill="#8E7F7F"/>
<path d="M6.15259 27.0539C6.25756 34.2261 15.6208 36.2202 18.2146 29.464C18.33 29.1478 18.1793 28.7933 17.8784 28.6724C17.5771 28.5507 17.2402 28.7091 17.1248 29.0257C15.0262 34.504 7.40662 32.8909 7.31968 27.0505C7.31287 24.4118 9.05089 22.1933 11.4524 21.7748C12.3202 21.6261 13.3362 21.7621 14.2618 21.7575C14.5843 21.7575 14.8451 21.483 14.8451 21.1445V14.7613C14.8335 13.9613 13.6916 13.9504 13.678 14.7613V20.5188C9.72839 19.9394 6.16781 22.6506 6.15259 27.0539Z" fill="#8E7F7F"/>
</svg>
