<svg width="63" height="40" viewBox="0 0 63 40" fill="none" xmlns="http://www.w3.org/2000/svg">
<path d="M61.6936 6.6171C60.9064 3.96507 58.5727 1.8766 55.6123 1.16786C51.6008 0.205364 38.3535 0.0306866 32.8419 0C31.5759 0.0247853 31.5726 1.68658 32.8359 1.71609C37.0762 1.7397 51.2122 1.889 55.111 2.82494C57.4082 3.37494 59.2146 4.99602 59.8294 7.05497C61.0576 11.1634 61.0722 19.9103 61.0722 19.9982C61.0722 20.0862 61.0569 28.8354 59.8281 32.9438C59.214 35.0016 57.4062 36.6215 55.1103 37.1709C50.5239 38.2709 31.69 38.2839 31.5003 38.2839C31.3107 38.2839 12.4768 38.2709 7.89033 37.1703C5.59446 36.6203 3.78667 35.0004 3.17258 32.9427C1.94307 28.8348 1.92848 20.0856 1.92848 19.9976C1.92848 19.9097 1.94307 11.1605 3.17258 7.05202C3.78667 4.99425 5.59446 3.37435 7.891 2.82494C11.4635 1.96748 23.7055 1.77097 28.8026 1.72612C30.0699 1.70134 30.0487 0.0141632 28.784 0.0100323C22.3606 0.0666845 11.0397 0.292113 7.38964 1.16786C4.42928 1.8766 2.09892 3.9627 1.30909 6.61178C0.0145896 10.9356 0 19.63 0 19.9976C0 20.3653 0.0145897 29.0596 1.30842 33.3835C2.09892 36.0332 4.42928 38.1193 7.38832 38.8274C12.2188 39.9864 30.7145 40 31.4997 40C32.2842 40 50.7805 39.9864 55.611 38.8274C58.5707 38.1193 60.9011 36.0332 61.6909 33.3841C62.9847 29.0596 63 20.3653 63 19.9976C63.0006 19.63 62.9854 10.9433 61.6936 6.6171Z" fill="#8E7F7F"/>
<path d="M24.7692 11.1756C24.4721 11.329 24.2897 11.6117 24.2897 11.9174V28.0786C24.2791 28.5401 24.738 28.9467 25.254 28.9367C25.4184 28.9367 25.5829 28.8995 25.7308 28.8245L41.6925 20.7445C42.3318 20.4436 42.3358 19.5542 41.6932 19.2527L25.7308 11.1715C25.433 11.021 25.0663 11.0222 24.7692 11.1756ZM26.2182 13.3927L39.266 19.998L26.2182 26.6027V13.3927Z" fill="#8E7F7F"/>
</svg>
